<?xml version="1.0" encoding="UTF-8" standalone="no"?>
<!-- Created with Inkscape (http://www.inkscape.org/) -->

<svg
   xmlns:dc="http://purl.org/dc/elements/1.1/"
   xmlns:cc="http://creativecommons.org/ns#"
   xmlns:rdf="http://www.w3.org/1999/02/22-rdf-syntax-ns#"
   xmlns:svg="http://www.w3.org/2000/svg"
   xmlns="http://www.w3.org/2000/svg"
   xmlns:sodipodi="http://sodipodi.sourceforge.net/DTD/sodipodi-0.dtd"
   xmlns:inkscape="http://www.inkscape.org/namespaces/inkscape"
   id="svg2"
   version="1.1"
   inkscape:version="0.48.0 r9654"
   width="625"
   height="250"
   xml:space="preserve"
   sodipodi:docname="qorus-1.svg"
   inkscape:export-filename="/Users/david/src/Qorus/svn/trunk/doxygen/images/qorus-small-white-on-transparent-200x77.png"
   inkscape:export-xdpi="29.530001"
   inkscape:export-ydpi="29.530001"><metadata
     id="metadata8"><rdf:RDF><cc:Work
         rdf:about=""><dc:format>image/svg+xml</dc:format><dc:type
           rdf:resource="http://purl.org/dc/dcmitype/StillImage" /><dc:title></dc:title></cc:Work></rdf:RDF></metadata><defs
     id="defs6"><clipPath
       clipPathUnits="userSpaceOnUse"
       id="clipPath16"><path
         d="M 0,200 500,200 500,0 0,0 0,200 z"
         id="path18" /></clipPath></defs><sodipodi:namedview
     pagecolor="#ffffff"
     bordercolor="#666666"
     borderopacity="1"
     objecttolerance="10"
     gridtolerance="10"
     guidetolerance="10"
     inkscape:pageopacity="0"
     inkscape:pageshadow="2"
     inkscape:window-width="1010"
     inkscape:window-height="690"
     id="namedview4"
     showgrid="false"
     inkscape:zoom="0.8144"
     inkscape:cx="312.5"
     inkscape:cy="125"
     inkscape:window-x="0"
     inkscape:window-y="0"
     inkscape:window-maximized="0"
     inkscape:current-layer="g10" /><g
     id="g10"
     inkscape:groupmode="layer"
     inkscape:label="qorus-1"
     transform="matrix(1.25,0,0,-1.25,0,250)"><g
       id="g12"><g
         id="g14"
         clip-path="url(#clipPath16)"><path
   d="m 493.666,27.333 c 0,-11.046 -8.954,-20 -20,-20 L 27,7.333 c -11.046,0 -20,8.954 -20,20 l 0,147.333 c 0,11.046 8.954,20 20,20 l 446.666,0 c 11.046,0 20,-8.954 20,-20 l 0,-147.333 z"
   style="fill:#ffffff;fill-opacity:1;fill-rule:nonzero;stroke:none"
   id="path20" /><path
   d="m 493.666,27.333 c 0,-11.046 -8.954,-20 -20,-20 L 27,7.333 c -11.046,0 -20,8.954 -20,20 l 0,147.333 c 0,11.046 8.954,20 20,20 l 446.666,0 c 11.046,0 20,-8.954 20,-20 l 0,-147.333 z"
   style="fill:none;stroke:#373535;stroke-opacity:1;stroke-width:1;stroke-linecap:butt;stroke-linejoin:miter;stroke-miterlimit:4;stroke-dasharray:none"
   id="path22" /><text
   transform="matrix(1,0,0,-1,11.3325,50.3335)"
   id="text24"><tspan
     style="fill:#ffffff;fill-opacity:1;fill-rule:nonzero;stroke:none;font-family:GillSans;font-variant:normal;font-weight:normal;font-stretch:normal;font-size:180;writing-mode:lr;-inkscape-font-specification:GillSans"
     x="0 148.14 247.5 318.78 408.78"
     y="0"
     sodipodi:role="line"
     id="tspan26">Qorus</tspan></text>


<path
   d="m 136.268,40.208 c -6.391,0 -16.828,2.79 -31.31,8.364 l -4.663,1.761 c 15.051,2.987 27.319,10.221 36.807,21.702 9.486,11.48 14.231,24.806 14.231,39.978 0,18.039 -6.278,33.02 -18.833,44.94 -12.554,11.92 -28.312,17.88 -47.273,17.88 -19.082,0 -34.855,-6.003 -47.32,-18.011 -12.467,-12.008 -18.699,-27.18 -18.699,-45.512 0,-14.996 4.839,-28.234 14.523,-39.715 9.682,-11.48 21.982,-18.568 36.9,-21.262 10.311,-7.089 18.557,-12.099 24.739,-15.031 6.179,-2.927 12.273,-5.228 18.279,-6.9 6.004,-1.668 11.762,-2.651 17.269,-2.944 l 17.665,17.125 c -4.692,-1.582 -8.797,-2.375 -12.315,-2.375 z M 119.604,144.91 c 9.068,-8.782 13.604,-19.877 13.604,-33.284 0,-13.113 -4.624,-24.15 -13.868,-33.107 -9.244,-8.957 -20.623,-13.436 -34.138,-13.436 -13.692,0 -25.073,4.375 -34.141,13.129 -9.07,8.752 -13.603,19.715 -13.603,32.889 0,13.524 4.503,24.734 13.515,33.633 9.01,8.898 20.42,13.349 34.229,13.349 13.865,0 25.332,-4.392 34.402,-13.173 z"
   style="fill:none;stroke:#373535;stroke-opacity:1;stroke-width:1;stroke-linecap:butt;stroke-linejoin:miter;stroke-miterlimit:4;stroke-dasharray:none"
   id="path28" /><path
   d="m 178.512,119.521 c -8.248,-7.875 -12.371,-17.725 -12.371,-29.551 0,-11.711 4.078,-21.472 12.238,-29.289 8.159,-7.816 18.313,-11.723 30.465,-11.723 12.561,0 22.979,3.848 31.256,11.547 8.277,7.7 12.416,17.373 12.416,29.026 0,12.002 -4.08,21.969 -12.238,29.902 -8.16,7.934 -18.403,11.9 -30.729,11.9 -12.445,0 -22.791,-3.937 -31.037,-11.812 z m 49.901,-10.109 c 5.234,-5.032 7.853,-11.377 7.853,-19.041 0,-7.723 -2.516,-14.055 -7.545,-18.998 -5.029,-4.944 -11.484,-7.415 -19.367,-7.415 -7.941,0 -14.441,2.442 -19.5,7.327 -5.059,4.884 -7.588,11.187 -7.588,18.91 0,7.781 2.471,14.185 7.412,19.217 4.942,5.031 11.264,7.546 18.971,7.546 7.941,0 14.529,-2.515 19.764,-7.546 z"
   style="fill:none;stroke:#373535;stroke-opacity:1;stroke-width:1;stroke-linecap:butt;stroke-linejoin:miter;stroke-miterlimit:4;stroke-dasharray:none"
   id="path30" /><path
   d="m 271.208,131.208 0,-80.875 16.125,0 0,42.34 c 0,6.748 1.884,12.586 5.654,17.516 3.769,4.93 8.226,7.394 13.371,7.394 4.734,0 9.879,-2.625 15.432,-7.875 l 8.418,14.016 c -6.547,6.072 -12.833,9.109 -18.852,9.109 -7.715,0 -15.432,-6.228 -23.147,-18.681 l -0.876,-1.402 0,18.458 -16.125,0 z"
   style="fill:none;stroke:#373535;stroke-opacity:1;stroke-width:1;stroke-linecap:butt;stroke-linejoin:miter;stroke-miterlimit:4;stroke-dasharray:none"
   id="path32" /><path
   d="m 408.987,50.333 0,80.875 -16,0 0,-57.712 c -5.336,-7.442 -11.813,-11.163 -19.432,-11.163 -6.097,0 -10.361,1.682 -12.795,5.045 -2.433,3.364 -3.648,9.286 -3.648,17.768 l 0,46.062 -16,0 0,-46.308 c 0,-10.137 1.097,-17.387 3.297,-21.75 2.197,-4.365 5.451,-7.822 9.759,-10.369 4.309,-2.547 9.012,-3.823 14.112,-3.823 4.336,0 8.689,1.036 13.056,3.104 4.368,2.068 8.25,4.965 11.651,8.689 l 0,-10.418 16,0 z"
   style="fill:none;stroke:#373535;stroke-opacity:1;stroke-width:1;stroke-linecap:butt;stroke-linejoin:miter;stroke-miterlimit:4;stroke-dasharray:none"
   id="path34" /><path
   d="m 441.635,50.492 c 3.75,-1.022 8.028,-1.534 12.832,-1.534 8.143,0 14.807,2.124 19.992,6.372 5.184,4.246 7.778,9.681 7.778,16.302 0,9.256 -6.733,17.694 -20.195,25.311 l -5.723,3.25 c -4.344,2.4 -7.381,4.453 -9.111,6.158 -1.731,1.703 -2.596,3.496 -2.596,5.379 0,2.174 0.951,3.922 2.853,5.244 1.903,1.322 4.405,1.984 7.506,1.984 6.028,0 13.783,-2.875 23.266,-8.625 l 0,15.821 c -8.317,4.453 -16.428,6.679 -24.334,6.679 -7.613,0 -13.836,-1.964 -18.668,-5.89 -4.832,-3.928 -7.248,-8.998 -7.248,-15.211 0,-4.807 1.597,-9.246 4.797,-13.32 3.199,-4.075 9.963,-8.983 20.291,-14.725 5.164,-2.932 8.523,-5.176 10.078,-6.734 1.555,-1.559 2.334,-3.514 2.334,-5.866 0,-2.293 -1.203,-4.263 -3.608,-5.91 -2.404,-1.646 -5.277,-2.469 -8.619,-2.469 -3.226,0 -7.199,0.981 -11.92,2.942 -4.72,1.961 -9.338,4.521 -13.853,7.683 l 0,-17.185 c 5.683,-2.748 10.398,-4.633 14.148,-5.656 z"
   style="fill:none;stroke:#373535;stroke-opacity:1;stroke-width:1;stroke-linecap:butt;stroke-linejoin:miter;stroke-miterlimit:4;stroke-dasharray:none"
   id="path36" /><path
   d="m 13.5,175.833 475,0"
   style="fill:none;stroke:#373535;stroke-opacity:1;stroke-width:0.25;stroke-linecap:butt;stroke-linejoin:miter;stroke-miterlimit:4;stroke-dasharray:none"
   id="path38" /><path
   d="m 13.5,47.5 475,0"
   style="fill:none;stroke:#373535;stroke-opacity:1;stroke-width:0.25;stroke-linecap:butt;stroke-linejoin:miter;stroke-miterlimit:4;stroke-dasharray:none"
   id="path40" /><path
   d="m 13.5,49.834 475,0"
   style="fill:none;stroke:#373535;stroke-opacity:1;stroke-width:0.25;stroke-linecap:butt;stroke-linejoin:miter;stroke-miterlimit:4;stroke-dasharray:none"
   id="path42" /><path
   d="m 18.5,179.583 0,-159"
   style="fill:none;stroke:#373535;stroke-opacity:1;stroke-width:0.25;stroke-linecap:butt;stroke-linejoin:miter;stroke-miterlimit:4;stroke-dasharray:none"
   id="path44" /><path
   d="m 253.3,179.583 0,-159"
   style="fill:none;stroke:#373535;stroke-opacity:1;stroke-width:0.25;stroke-linecap:butt;stroke-linejoin:miter;stroke-miterlimit:4;stroke-dasharray:none"
   id="path46" /><path
   d="m 165.039,179.583 0,-159"
   style="fill:none;stroke:#373535;stroke-opacity:1;stroke-width:0.25;stroke-linecap:butt;stroke-linejoin:miter;stroke-miterlimit:4;stroke-dasharray:none"
   id="path48" /><path
   d="m 152.5,179.583 0,-159"
   style="fill:none;stroke:#373535;stroke-opacity:1;stroke-width:0.25;stroke-linecap:butt;stroke-linejoin:miter;stroke-miterlimit:4;stroke-dasharray:none"
   id="path50" /><path
   d="m 331.258,179.583 0,-159"
   style="fill:none;stroke:#373535;stroke-opacity:1;stroke-width:0.25;stroke-linecap:butt;stroke-linejoin:miter;stroke-miterlimit:4;stroke-dasharray:none"
   id="path52" /><path
   d="m 340.332,179.583 0,-159"
   style="fill:none;stroke:#373535;stroke-opacity:1;stroke-width:0.25;stroke-linecap:butt;stroke-linejoin:miter;stroke-miterlimit:4;stroke-dasharray:none"
   id="path54" /><path
   d="m 409.842,179.583 0,-159"
   style="fill:none;stroke:#373535;stroke-opacity:1;stroke-width:0.25;stroke-linecap:butt;stroke-linejoin:miter;stroke-miterlimit:4;stroke-dasharray:none"
   id="path56" /><path
   d="m 426.969,179.583 0,-158.998"
   style="fill:none;stroke:#373535;stroke-opacity:1;stroke-width:0.25;stroke-linecap:butt;stroke-linejoin:miter;stroke-miterlimit:4;stroke-dasharray:none"
   id="path58" /><path
   d="m 479.025,179.583 0,-158.998"
   style="fill:none;stroke:#373535;stroke-opacity:1;stroke-width:0.25;stroke-linecap:butt;stroke-linejoin:miter;stroke-miterlimit:4;stroke-dasharray:none"
   id="path60" /><path
   d="m 270.814,179.583 0,-159"
   style="fill:none;stroke:#373535;stroke-opacity:1;stroke-width:0.25;stroke-linecap:butt;stroke-linejoin:miter;stroke-miterlimit:4;stroke-dasharray:none"
   id="path62" /><path
   d="m 13.5,131.834 475,0"
   style="fill:none;stroke:#373535;stroke-opacity:1;stroke-width:0.25;stroke-linecap:butt;stroke-linejoin:miter;stroke-miterlimit:4;stroke-dasharray:none"
   id="path64" /><path
   d="m 13.5,133.834 475,0"
   style="fill:none;stroke:#373535;stroke-opacity:1;stroke-width:0.25;stroke-linecap:butt;stroke-linejoin:miter;stroke-miterlimit:4;stroke-dasharray:none"
   id="path66" /><path
   d="m 483.223,179.583 0,-158.998"
   style="fill:none;stroke:#373535;stroke-opacity:1;stroke-width:0.25;stroke-linecap:butt;stroke-linejoin:miter;stroke-miterlimit:4;stroke-dasharray:none"
   id="path68" /></g></g></g></svg>