<?xml version="1.0" encoding="UTF-8" standalone="no"?>
<!-- Created with Inkscape (http://www.inkscape.org/) -->

<svg
   xmlns:dc="http://purl.org/dc/elements/1.1/"
   xmlns:cc="http://creativecommons.org/ns#"
   xmlns:rdf="http://www.w3.org/1999/02/22-rdf-syntax-ns#"
   xmlns:svg="http://www.w3.org/2000/svg"
   xmlns="http://www.w3.org/2000/svg"
   xmlns:xlink="http://www.w3.org/1999/xlink"
   xmlns:sodipodi="http://sodipodi.sourceforge.net/DTD/sodipodi-0.dtd"
   xmlns:inkscape="http://www.inkscape.org/namespaces/inkscape"
   id="svg2"
   version="1.1"
   inkscape:version="0.48.0 r9654"
   width="890"
   height="543.75"
   xml:space="preserve"
   sodipodi:docname="system-architecture5.svg"
   inkscape:export-filename="/Users/david/Documents/Business/Qore Technologies/Qorus/graphics/system-architecture5.png"
   inkscape:export-xdpi="81.839996"
   inkscape:export-ydpi="81.839996"><metadata
     id="metadata8"><rdf:RDF><cc:Work
         rdf:about=""><dc:format>image/svg+xml</dc:format><dc:type
           rdf:resource="http://purl.org/dc/dcmitype/StillImage" /><dc:title></dc:title></cc:Work></rdf:RDF></metadata><defs
     id="defs6"><clipPath
   clipPathUnits="userSpaceOnUse"
   id="clipPath16"><path
     d="M 0,435 712,435 712,0 0,0 0,435 z"
     id="path18" /></clipPath>
</defs><sodipodi:namedview
     pagecolor="#ffffff"
     bordercolor="#666666"
     borderopacity="1"
     objecttolerance="10"
     gridtolerance="10"
     guidetolerance="10"
     inkscape:pageopacity="0"
     inkscape:pageshadow="2"
     inkscape:window-width="1243"
     inkscape:window-height="749"
     id="namedview4"
     showgrid="false"
     inkscape:zoom="0.96367814"
     inkscape:cx="481.5142"
     inkscape:cy="277.21465"
     inkscape:window-x="0"
     inkscape:window-y="0"
     inkscape:window-maximized="0"
     inkscape:current-layer="g14" /><g
     id="g10"
     inkscape:groupmode="layer"
     inkscape:label="system-architecture4"
     transform="matrix(1.25,0,0,-1.25,0,543.75)"><g
       id="g12"><g
         id="g14"
         clip-path="url(#clipPath16)"><g
   id="g44"
   transform="translate(138.4326,120.1943)"
   inkscape:export-xdpi="107.78938"
   inkscape:export-ydpi="107.78938"
   inkscape:export-filename="/Users/david/Documents/Business/Qore Technologies/Qorus/graphics/system-architecture5.png"><path
   d="m 0,0 c 0,-6.627 -5.373,-12 -12,-12 l -111,0 c -6.627,0 -12,5.373 -12,12 l 0,46 c 0,6.627 5.373,12 12,12 l 111,0 C -5.373,58 0,52.627 0,46 L 0,0 z"
   style="fill:#9bca3b;fill-opacity:1;fill-rule:nonzero;stroke:none"
   id="path46" /><text
   xml:space="preserve"
   style="font-size:32px;font-style:normal;font-variant:normal;font-weight:normal;font-stretch:normal;text-align:center;line-height:100%;letter-spacing:0px;word-spacing:0px;writing-mode:lr-tb;text-anchor:middle;fill:#ffffff;fill-opacity:1;stroke:none;font-family:Eurostile;-inkscape-font-specification:Eurostile"
   x="-67.699219"
   y="-27.001953"
   id="text3552"
   sodipodi:linespacing="100%"
   transform="scale(1,-1)"><tspan
     sodipodi:role="line"
     id="tspan3554"
     x="-67.699219"
     y="-27.001953"
     style="font-size:24px;text-align:center;text-anchor:middle;fill:#ffffff">Workflow</tspan><tspan
     sodipodi:role="line"
     x="-67.699219"
     y="-3.0019531"
     style="font-size:24px;text-align:center;text-anchor:middle;fill:#ffffff"
     id="tspan3556">Data Cache</tspan></text>


</g><g
   id="g4577"
   transform="translate(2.6614471,1.6)"
   inkscape:export-filename="/Users/david/Documents/Business/Qore Technologies/Qorus/graphics/system-architecture5.png"
   inkscape:export-xdpi="107.78938"
   inkscape:export-ydpi="107.78938"><g
   style="stroke:none"
   transform="matrix(1.0405582,0,0,1,423.5549,335.22989)"
   id="g52"><path
     inkscape:connector-curvature="0"
     id="path54"
     style="fill:#f7ac0e;fill-opacity:1;fill-rule:nonzero;stroke:none"
     d="m 0,0 -134.956,0 c -6.686,0 -12.126,4.68 -12.126,10.432 l 0,24.903 c 0,5.754 5.44,10.434 12.126,10.434 L 0,45.769 c 6.685,0 12.123,-4.68 12.123,-10.434 l 0,-24.903 C 12.123,4.68 6.685,0 0,0" /></g><text
   y="-350.11633"
   x="289.03778"
   style="font-family:Newspaper;-inkscape-font-specification:Newspaper"
   transform="scale(1,-1)"
   id="text60"><tspan
     y="-350.11633"
     id="tspan62"
     sodipodi:role="line"
     x="289.03778"
     style="font-size:24px;font-style:normal;font-variant:normal;font-weight:normal;font-stretch:normal;writing-mode:lr-tb;fill:#000000;fill-opacity:1;fill-rule:nonzero;stroke:none;font-family:Eurostile;-inkscape-font-specification:Eurostile">HTTP Server</tspan></text>


</g><text
   transform="matrix(1,0,0,-1,163.209,197.5083)"
   id="text132"
   inkscape:export-filename="/Users/david/Documents/Business/Qore Technologies/Qorus/graphics/system-architecture5.png"
   inkscape:export-xdpi="107.78938"
   inkscape:export-ydpi="107.78938"><tspan
     style="fill:#ffffff;fill-opacity:1;fill-rule:nonzero;stroke:none;font-family:GillSans Light;font-variant:normal;font-weight:300;font-stretch:normal;font-size:24;writing-mode:lr;-inkscape-font-specification:GillSans-Light"
     x="0"
     sodipodi:role="line"
     id="tspan142"
     y="0" /></text>




<g
   id="g3124"
   transform="translate(-0.9731,0)"
   inkscape:export-filename="/Users/david/Documents/Business/Qore Technologies/Qorus/graphics/system-architecture5.png"
   inkscape:export-xdpi="107.78938"
   inkscape:export-ydpi="107.78938"><g
   transform="translate(707.4053,91.1133)"
   id="g258"><path
     id="path260"
     style="fill:#fff8c5;fill-opacity:1;fill-rule:nonzero;stroke:none"
     d="m 0,0 c 0,-5.566 -4.581,-10.079 -10.228,-10.079 l -159.544,0 C -175.42,-10.079 -180,-5.566 -180,0 l 0,25.364 c 0,5.567 4.58,10.079 10.228,10.079 l 159.544,0 C -4.581,35.443 0,30.931 0,25.364 L 0,0 z"
     inkscape:connector-curvature="0" /></g><text
   y="-97.859756"
   x="540.89941"
   id="text266"
   transform="scale(1,-1)"><tspan
     y="-97.859756"
     x="540.89941"
     id="tspan268"
     sodipodi:role="line"
     style="font-size:24px;font-variant:normal;font-weight:300;font-stretch:normal;writing-mode:lr-tb;fill:#231f20;fill-opacity:1;fill-rule:nonzero;stroke:none;font-family:Eurostile;-inkscape-font-specification:Eurostile">Service Objects</tspan></text>

</g>
<g
   id="g3080"
   inkscape:export-filename="/Users/david/Documents/Business/Qore Technologies/Qorus/graphics/system-architecture5.png"
   inkscape:export-xdpi="107.78938"
   inkscape:export-ydpi="107.78938"><g
   transform="matrix(0.99764496,0,0,1,706.787,245.896)"
   id="g28"><path
     inkscape:connector-curvature="0"
     id="path30"
     style="fill:#aec232;fill-opacity:1;fill-rule:nonzero;stroke:none"
     d="m 0,0 c 0,-6.627 -5.372,-12 -12,-12 l -681,0 c -6.627,0 -12,5.373 -12,12 l 0,21.522 c 0,6.627 5.373,12 12,12 l 681,0 c 6.628,0 12,-5.373 12,-12 L 0,0 z" /></g><text
   y="-246.93246"
   x="278.13278"
   id="text322"
   transform="scale(1,-1)"><tspan
     id="tspan324"
     sodipodi:role="line"
     y="-246.93246"
     x="278.13278"
     style="font-size:32px;font-variant:normal;font-weight:300;font-stretch:normal;writing-mode:lr-tb;fill:#ffffff;fill-opacity:1;fill-rule:nonzero;stroke:none;font-family:Eurostile;-inkscape-font-specification:Eurostile">Internal API</tspan></text>

</g>
<g
   id="g3179"
   inkscape:export-filename="/Users/david/Documents/Business/Qore Technologies/Qorus/graphics/system-architecture5.png"
   inkscape:export-xdpi="107.78938"
   inkscape:export-ydpi="107.78938"><g
     transform="translate(-0.7348,-0.06735)"
     id="g3118"><g
   id="g210"
   transform="translate(707.167,142.3525)"><path
     inkscape:connector-curvature="0"
     d="m 0,0 c 0,-5.566 -4.581,-10.079 -10.228,-10.079 l -159.544,0 C -175.42,-10.079 -180,-5.566 -180,0 l 0,25.364 c 0,5.567 4.58,10.079 10.228,10.079 l 159.544,0 C -4.581,35.443 0,30.931 0,25.364 L 0,0 z"
     style="fill:#fff8c5;fill-opacity:1;fill-rule:nonzero;stroke:none"
     id="path212" /></g><text
   transform="scale(1,-1)"
   id="text218"
   x="561.30957"
   y="-147.03645"><tspan
     style="font-size:24px;font-variant:normal;font-weight:300;font-stretch:normal;writing-mode:lr-tb;fill:#231f20;fill-opacity:1;fill-rule:nonzero;stroke:none;font-family:Eurostile;-inkscape-font-specification:Eurostile"
     x="561.30957"
     y="-147.03645"
     sodipodi:role="line"
     id="tspan220">Service API</tspan></text>

</g><g
     transform="translate(0.58158409,0.06785)"
     id="g3105"><g
   id="g326"
   transform="translate(520.8184,142.2168)"><path
     inkscape:connector-curvature="0"
     d="m 0,0 c 0,-5.566 -4.581,-10.078 -10.228,-10.078 l -159.544,0 C -175.42,-10.078 -180,-5.566 -180,0 l 0,25.365 c 0,5.567 4.58,10.078 10.228,10.078 l 159.544,0 C -4.581,35.443 0,30.932 0,25.365 L 0,0 z"
     style="fill:#c8f752;fill-opacity:1;fill-rule:nonzero;stroke:none"
     id="path328" /></g><text
   transform="scale(1,-1)"
   id="text334"
   x="364.19144"
   y="-146.90126"><tspan
     style="font-size:24px;font-variant:normal;font-weight:300;font-stretch:normal;writing-mode:lr-tb;fill:#231f20;fill-opacity:1;fill-rule:nonzero;stroke:none;font-family:Eurostile;-inkscape-font-specification:Eurostile"
     x="364.19144"
     y="-146.90126"
     sodipodi:role="line"
     id="tspan336">Workflow API</tspan></text>

</g></g>
<g
   id="g3111"
   transform="translate(0.57868409,0)"
   inkscape:export-filename="/Users/david/Documents/Business/Qore Technologies/Qorus/graphics/system-architecture5.png"
   inkscape:export-xdpi="107.78938"
   inkscape:export-ydpi="107.78938"><g
   transform="translate(520.8213,68.1787)"
   id="g376"><path
     id="path378"
     style="fill:#c8f752;fill-opacity:1;fill-rule:nonzero;stroke:none"
     d="m 0,0 c 0,-6.627 -5.373,-12 -12,-12 l -156,0 c -6.628,0 -12,5.373 -12,12 l 0,46 c 0,6.627 5.372,12 12,12 l 156,0 C -5.373,58 0,52.627 0,46 L 0,0 z"
     inkscape:connector-curvature="0" /></g><text
   style="text-align:center;text-anchor:middle"
   y="-98.180656"
   x="430.85059"
   id="text384"
   transform="scale(1,-1)"><tspan
     id="tspan3572"
     sodipodi:role="line"
     y="-98.180656"
     x="430.85059"
     style="font-size:24px;font-variant:normal;font-weight:300;font-stretch:normal;text-align:center;writing-mode:lr-tb;text-anchor:middle;fill:#231f20;fill-opacity:1;fill-rule:nonzero;stroke:none;font-family:Eurostile;-inkscape-font-specification:Eurostile">Workflow</tspan><tspan
     id="tspan3576"
     sodipodi:role="line"
     y="-68.180656"
     x="430.85059"
     style="font-size:24px;font-variant:normal;font-weight:300;font-stretch:normal;text-align:center;writing-mode:lr-tb;text-anchor:middle;fill:#231f20;fill-opacity:1;fill-rule:nonzero;stroke:none;font-family:Eurostile;-inkscape-font-specification:Eurostile">Exec Instances</tspan></text>

</g>
<text
   transform="matrix(1,0,0,-1,352.3867,69.4351)"
   id="text416"
   inkscape:export-filename="/Users/david/Documents/Business/Qore Technologies/Qorus/graphics/system-architecture5.png"
   inkscape:export-xdpi="107.78938"
   inkscape:export-ydpi="107.78938"><tspan
     style="fill:#231f20;fill-opacity:1;fill-rule:nonzero;stroke:none;font-family:GillSans Light;font-variant:normal;font-weight:300;font-stretch:normal;font-size:24;writing-mode:lr;-inkscape-font-specification:GillSans-Light"
     x="0"
     y="0"
     sodipodi:role="line"
     id="tspan418" /></text>



<g
   id="g3151"
   transform="translate(2.4018317,0.7997)"
   inkscape:export-filename="/Users/david/Documents/Business/Qore Technologies/Qorus/graphics/system-architecture5.png"
   inkscape:export-xdpi="107.78938"
   inkscape:export-ydpi="107.78938"><text
   style="text-align:center;text-anchor:middle"
   y="-419.40598"
   x="353.39554"
   id="text476"
   transform="scale(1,-1)"><tspan
     y="-419.40598"
     x="353.39554"
     id="tspan482"
     sodipodi:role="line"
     style="font-size:10px;font-variant:normal;font-weight:300;font-stretch:normal;text-align:center;writing-mode:lr-tb;text-anchor:middle;fill:#000000;fill-opacity:1;fill-rule:nonzero;stroke:none;font-family:Eurostile;-inkscape-font-specification:Eurostile">The built-in HTTP(S) server</tspan><tspan
     id="tspan3623"
     y="-406.90598"
     x="353.39554"
     sodipodi:role="line"
     style="font-size:10px;font-variant:normal;font-weight:300;font-stretch:normal;text-align:center;writing-mode:lr-tb;text-anchor:middle;fill:#000000;fill-opacity:1;fill-rule:nonzero;stroke:none;font-family:Eurostile;-inkscape-font-specification:Eurostile">exports the system API and user</tspan><tspan
     id="tspan3625"
     y="-394.40598"
     x="353.39554"
     sodipodi:role="line"
     style="font-size:10px;font-variant:normal;font-weight:300;font-stretch:normal;text-align:center;writing-mode:lr-tb;text-anchor:middle;fill:#000000;fill-opacity:1;fill-rule:nonzero;stroke:none;font-family:Eurostile;-inkscape-font-specification:Eurostile">services as SOA methods.</tspan></text>

<g
   transform="matrix(1.0404946,0,0,1,435.30977,427.2485)"
   id="g484"><path
     inkscape:connector-curvature="0"
     id="path486"
     style="fill:#231f20;fill-opacity:1;fill-rule:nonzero;stroke:none"
     d="M 0,0 C -1.59,2.862 -4.547,4.938 -8.11,5.695 -8.178,5.709 -8.244,5.666 -8.259,5.599 -8.272,5.531 -8.229,5.465 -8.162,5.45 c 3.514,-0.746 6.416,-2.823 7.943,-5.572 0.034,-0.06 0.11,-0.082 0.17,-0.048 C 0.012,-0.137 0.033,-0.061 0,0 m 1.196,-12.921 0,8.362 c 0,0.561 -0.051,1.124 -0.153,1.674 -0.012,0.068 -0.077,0.113 -0.146,0.1 C 0.83,-2.797 0.785,-2.862 0.798,-2.93 0.896,-3.46 0.946,-4.004 0.946,-4.559 l 0,-8.362 c 0,-0.069 0.056,-0.125 0.125,-0.125 0.07,0 0.125,0.056 0.125,0.125 m 0,-13 0,10 c 0,0.068 -0.055,0.125 -0.125,0.125 -0.069,0 -0.125,-0.057 -0.125,-0.125 l 0,-10 c 0,-0.069 0.056,-0.125 0.125,-0.125 0.07,0 0.125,0.056 0.125,0.125 m -4.494,-11.715 c 2.857,2.016 4.494,4.995 4.494,8.175 l 0,0.54 c 0,0.068 -0.055,0.125 -0.125,0.125 -0.069,0 -0.125,-0.057 -0.125,-0.125 l 0,-0.54 c 0,-3.211 -1.709,-6.08 -4.388,-7.971 -0.056,-0.039 -0.07,-0.117 -0.03,-0.173 0.039,-0.057 0.118,-0.071 0.174,-0.031 m -12.667,-2.385 4.911,0 c 1.767,0 3.471,0.317 5.066,0.942 0.064,0.026 0.095,0.098 0.071,0.162 -0.025,0.064 -0.099,0.096 -0.162,0.071 -1.516,-0.593 -3.2,-0.925 -4.975,-0.925 l -4.911,0 c -0.069,0 -0.125,-0.055 -0.125,-0.125 0,-0.068 0.056,-0.125 0.125,-0.125 m -13,0 10,0 c 0.069,0 0.125,0.057 0.125,0.125 0,0.07 -0.056,0.125 -0.125,0.125 l -10,0 c -0.069,0 -0.125,-0.055 -0.125,-0.125 0,-0.068 0.056,-0.125 0.125,-0.125 m -13,0 10,0 c 0.069,0 0.125,0.057 0.125,0.125 0,0.07 -0.056,0.125 -0.125,0.125 l -10,0 c -0.069,0 -0.125,-0.055 -0.125,-0.125 0,-0.068 0.056,-0.125 0.125,-0.125 m -13,0 10,0 c 0.069,0 0.125,0.057 0.125,0.125 0,0.07 -0.056,0.125 -0.125,0.125 l -10,0 c -0.069,0 -0.125,-0.055 -0.125,-0.125 0,-0.068 0.056,-0.125 0.125,-0.125 m -13,0 10,0 c 0.069,0 0.125,0.057 0.125,0.125 0,0.07 -0.056,0.125 -0.125,0.125 l -10,0 c -0.069,0 -0.125,-0.055 -0.125,-0.125 0,-0.068 0.056,-0.125 0.125,-0.125 m -13,0 10,0 c 0.069,0 0.125,0.057 0.125,0.125 0,0.07 -0.056,0.125 -0.125,0.125 l -10,0 c -0.069,0 -0.125,-0.055 -0.125,-0.125 0,-0.068 0.056,-0.125 0.125,-0.125 m -13,0 10,0 c 0.069,0 0.125,0.057 0.125,0.125 0,0.07 -0.056,0.125 -0.125,0.125 l -10,0 c -0.069,0 -0.125,-0.055 -0.125,-0.125 0,-0.068 0.056,-0.125 0.125,-0.125 m -13,0 10,0 c 0.069,0 0.125,0.057 0.125,0.125 0,0.07 -0.056,0.125 -0.125,0.125 l -10,0 c -0.069,0 -0.125,-0.055 -0.125,-0.125 0,-0.068 0.056,-0.125 0.125,-0.125 m -13,0 10,0 c 0.069,0 0.125,0.057 0.125,0.125 0,0.07 -0.056,0.125 -0.125,0.125 l -10,0 c -0.069,0 -0.125,-0.055 -0.125,-0.125 0,-0.068 0.056,-0.125 0.125,-0.125 m -13,0 10,0 c 0.069,0 0.125,0.057 0.125,0.125 0,0.07 -0.056,0.125 -0.125,0.125 l -10,0 c -0.069,0 -0.125,-0.055 -0.125,-0.125 0,-0.068 0.056,-0.125 0.125,-0.125 m -13,0 10,0 c 0.069,0 0.125,0.057 0.125,0.125 0,0.07 -0.056,0.125 -0.125,0.125 l -10,0 c -0.069,0 -0.125,-0.055 -0.125,-0.125 0,-0.068 0.056,-0.125 0.125,-0.125 m -11.119,6.042 c 1.577,-2.87 4.525,-4.956 8.088,-5.726 0.068,-0.014 0.134,0.029 0.149,0.096 0.014,0.068 -0.028,0.134 -0.096,0.149 -3.511,0.758 -6.407,2.844 -7.922,5.601 -0.033,0.061 -0.11,0.083 -0.17,0.049 -0.061,-0.033 -0.083,-0.109 -0.049,-0.169 m -1.175,12.925 0,-8.407 c 0,-0.546 0.049,-1.094 0.145,-1.629 0.012,-0.068 0.077,-0.113 0.145,-0.101 0.068,0.012 0.113,0.077 0.101,0.146 -0.093,0.516 -0.141,1.045 -0.141,1.584 l 0,8.407 c 0,0.069 -0.056,0.125 -0.125,0.125 -0.069,0 -0.125,-0.056 -0.125,-0.125 m 0,13 0,-10 c 0,-0.069 0.056,-0.125 0.125,-0.125 0.069,0 0.125,0.056 0.125,0.125 l 0,10 c 0,0.069 -0.056,0.125 -0.125,0.125 -0.069,0 -0.125,-0.056 -0.125,-0.125 m 4.531,11.697 c -2.879,-2.017 -4.531,-5.006 -4.531,-8.202 l 0,-0.495 c 0,-0.069 0.056,-0.125 0.125,-0.125 0.069,0 0.125,0.056 0.125,0.125 l 0,0.495 c 0,3.226 1.724,6.106 4.425,7.997 0.056,0.039 0.07,0.117 0.03,0.174 -0.039,0.056 -0.117,0.07 -0.174,0.031 m 12.674,2.358 -4.955,0 c -1.75,0 -3.44,-0.311 -5.024,-0.925 -0.064,-0.025 -0.096,-0.097 -0.071,-0.162 0.025,-0.064 0.098,-0.096 0.162,-0.071 1.504,0.584 3.175,0.908 4.933,0.908 l 4.955,0 c 0.069,0 0.125,0.057 0.125,0.125 0,0.07 -0.056,0.125 -0.125,0.125 m 13,0 -10,0 c -0.069,0 -0.125,-0.055 -0.125,-0.125 0,-0.068 0.056,-0.125 0.125,-0.125 l 10,0 c 0.07,0 0.125,0.057 0.125,0.125 0,0.07 -0.055,0.125 -0.125,0.125 m 13,0 -10,0 c -0.069,0 -0.125,-0.055 -0.125,-0.125 0,-0.068 0.056,-0.125 0.125,-0.125 l 10,0 c 0.07,0 0.125,0.057 0.125,0.125 0,0.07 -0.055,0.125 -0.125,0.125 m 13,0 -10,0 c -0.069,0 -0.125,-0.055 -0.125,-0.125 0,-0.068 0.056,-0.125 0.125,-0.125 l 10,0 c 0.07,0 0.125,0.057 0.125,0.125 0,0.07 -0.055,0.125 -0.125,0.125 m 13,0 -10,0 c -0.069,0 -0.125,-0.055 -0.125,-0.125 0,-0.068 0.056,-0.125 0.125,-0.125 l 10,0 c 0.069,0 0.125,0.057 0.125,0.125 0,0.07 -0.056,0.125 -0.125,0.125 m 13,0 -10,0 c -0.069,0 -0.125,-0.055 -0.125,-0.125 0,-0.068 0.056,-0.125 0.125,-0.125 l 10,0 c 0.069,0 0.125,0.057 0.125,0.125 0,0.07 -0.056,0.125 -0.125,0.125 m 13,0 -10,0 c -0.069,0 -0.125,-0.055 -0.125,-0.125 0,-0.068 0.056,-0.125 0.125,-0.125 l 10,0 c 0.07,0 0.125,0.057 0.125,0.125 0,0.07 -0.055,0.125 -0.125,0.125 m 13,0 -10,0 c -0.069,0 -0.125,-0.055 -0.125,-0.125 0,-0.068 0.056,-0.125 0.125,-0.125 l 10,0 c 0.07,0 0.125,0.057 0.125,0.125 0,0.07 -0.055,0.125 -0.125,0.125 m 13,0 -10,0 c -0.069,0 -0.125,-0.055 -0.125,-0.125 0,-0.068 0.056,-0.125 0.125,-0.125 l 10,0 c 0.07,0 0.125,0.057 0.125,0.125 0,0.07 -0.055,0.125 -0.125,0.125 m 13,0 -10,0 c -0.069,0 -0.125,-0.055 -0.125,-0.125 0,-0.068 0.056,-0.125 0.125,-0.125 l 10,0 c 0.07,0 0.125,0.057 0.125,0.125 0,0.07 -0.055,0.125 -0.125,0.125 m 13,0 -10,0 c -0.069,0 -0.125,-0.055 -0.125,-0.125 0,-0.068 0.056,-0.125 0.125,-0.125 l 10,0 c 0.07,0 0.125,0.057 0.125,0.125 0,0.07 -0.055,0.125 -0.125,0.125" /></g></g><text
   transform="matrix(1,0,0,-1,362.6753,38.4326)"
   id="text492"
   inkscape:export-filename="/Users/david/Documents/Business/Qore Technologies/Qorus/graphics/system-architecture5.png"
   inkscape:export-xdpi="107.78938"
   inkscape:export-ydpi="107.78938"><tspan
     style="fill:#000000;fill-opacity:1;fill-rule:nonzero;stroke:none;font-family:GillSans Light;font-variant:normal;font-weight:300;font-stretch:normal;font-size:10;writing-mode:lr;-inkscape-font-specification:GillSans-Light"
     sodipodi:role="line"
     id="tspan504" /></text>



<g
   id="g3159"
   inkscape:export-filename="/Users/david/Documents/Business/Qore Technologies/Qorus/graphics/system-architecture5.png"
   inkscape:export-xdpi="107.78938"
   inkscape:export-ydpi="107.78938"><text
   y="-89.750183"
   x="169.62129"
   style="text-align:center;text-anchor:middle;font-family:Eurostile;-inkscape-font-specification:Eurostile"
   id="text510"
   transform="scale(1,-1)"><tspan
     id="tspan3612"
     y="-89.750183"
     x="169.62129"
     sodipodi:role="line"
     style="font-size:10px;font-variant:normal;font-weight:300;font-stretch:normal;text-align:center;writing-mode:lr-tb;text-anchor:middle;fill:#000000;fill-opacity:1;fill-rule:nonzero;stroke:none;font-family:Eurostile;-inkscape-font-specification:Eurostile">Workflow caches ensure that database activity is minimized, while ensuring</tspan><tspan
     id="tspan3616"
     y="-77.250183"
     x="169.62129"
     sodipodi:role="line"
     style="font-size:10px;font-variant:normal;font-weight:300;font-stretch:normal;text-align:center;writing-mode:lr-tb;text-anchor:middle;fill:#000000;fill-opacity:1;fill-rule:nonzero;stroke:none;font-family:Eurostile;-inkscape-font-specification:Eurostile"> that needed data is available and a safe transaction model is followed.</tspan></text>

<g
   id="g3139"><g
     id="g516"
     transform="translate(332.4312,96.3447)"><path
       d="M 0,0 C 0.036,-0.06 0.112,-0.079 0.171,-0.044 0.231,-0.008 0.25,0.068 0.215,0.128 -1.488,2.981 -4.342,5.069 -7.707,5.75 -7.774,5.764 -7.84,5.72 -7.854,5.652 -7.868,5.585 -7.824,5.519 -7.756,5.505 -4.524,4.852 -1.697,2.845 0,0 m 1.652,-12.566 c 0,-0.07 0.056,-0.126 0.125,-0.126 0.069,0 0.125,0.056 0.125,0.126 l 0,6.554 c 0,1.181 -0.17,2.322 -0.487,3.399 -0.02,0.066 -0.09,0.103 -0.156,0.085 C 1.193,-2.549 1.155,-2.618 1.174,-2.684 1.492,-3.76 1.652,-4.879 1.652,-6.012 l 0,-6.554 m -5.863,-10.618 c -0.06,-0.034 -0.081,-0.11 -0.046,-0.17 0.035,-0.06 0.111,-0.081 0.171,-0.045 2.878,1.669 4.999,4.5 5.72,7.851 0.014,0.068 -0.029,0.134 -0.096,0.149 -0.068,0.014 -0.134,-0.029 -0.149,-0.096 -0.693,-3.224 -2.735,-6.026 -5.6,-7.689 m -12.59,-1.578 c -0.069,0 -0.125,-0.055 -0.125,-0.125 0,-0.069 0.056,-0.125 0.125,-0.125 l 6.703,0 c 1.129,0 2.221,0.156 3.256,0.448 0.067,0.018 0.105,0.086 0.087,0.153 -0.019,0.067 -0.088,0.105 -0.155,0.087 -1.032,-0.29 -2.105,-0.438 -3.188,-0.438 l -6.703,0 m -13,0 c -0.069,0 -0.125,-0.055 -0.125,-0.125 0,-0.069 0.056,-0.125 0.125,-0.125 l 10,0 c 0.069,0 0.125,0.056 0.125,0.125 0,0.07 -0.056,0.125 -0.125,0.125 l -10,0 m -13,0 c -0.069,0 -0.125,-0.055 -0.125,-0.125 0,-0.069 0.056,-0.125 0.125,-0.125 l 10,0 c 0.069,0 0.125,0.056 0.125,0.125 0,0.07 -0.056,0.125 -0.125,0.125 l -10,0 m -13,0 c -0.069,0 -0.125,-0.055 -0.125,-0.125 0,-0.069 0.056,-0.125 0.125,-0.125 l 10,0 c 0.069,0 0.125,0.056 0.125,0.125 0,0.07 -0.056,0.125 -0.125,0.125 l -10,0 m -13,0 c -0.069,0 -0.125,-0.055 -0.125,-0.125 0,-0.069 0.056,-0.125 0.125,-0.125 l 10,0 c 0.069,0 0.125,0.056 0.125,0.125 0,0.07 -0.056,0.125 -0.125,0.125 l -10,0 m -13,0 c -0.069,0 -0.125,-0.055 -0.125,-0.125 0,-0.069 0.056,-0.125 0.125,-0.125 l 10,0 c 0.069,0 0.125,0.056 0.125,0.125 0,0.07 -0.056,0.125 -0.125,0.125 l -10,0 m -13,0 c -0.069,0 -0.125,-0.055 -0.125,-0.125 0,-0.069 0.056,-0.125 0.125,-0.125 l 10,0 c 0.069,0 0.125,0.056 0.125,0.125 0,0.07 -0.056,0.125 -0.125,0.125 l -10,0 m -13,0 c -0.069,0 -0.125,-0.055 -0.125,-0.125 0,-0.069 0.056,-0.125 0.125,-0.125 l 10,0 c 0.069,0 0.125,0.056 0.125,0.125 0,0.07 -0.056,0.125 -0.125,0.125 l -10,0 m -13,0 c -0.069,0 -0.125,-0.055 -0.125,-0.125 0,-0.069 0.056,-0.125 0.125,-0.125 l 10,0 c 0.069,0 0.125,0.056 0.125,0.125 0,0.07 -0.056,0.125 -0.125,0.125 l -10,0 m -13,0 c -0.069,0 -0.125,-0.055 -0.125,-0.125 0,-0.069 0.056,-0.125 0.125,-0.125 l 10,0 c 0.069,0 0.125,0.056 0.125,0.125 0,0.07 -0.056,0.125 -0.125,0.125 l -10,0 m -13,0 c -0.069,0 -0.125,-0.055 -0.125,-0.125 0,-0.069 0.056,-0.125 0.125,-0.125 l 10,0 c 0.069,0 0.125,0.056 0.125,0.125 0,0.07 -0.056,0.125 -0.125,0.125 l -10,0 m -13,0 c -0.069,0 -0.125,-0.055 -0.125,-0.125 0,-0.069 0.056,-0.125 0.125,-0.125 l 10,0 c 0.069,0 0.125,0.056 0.125,0.125 0,0.07 -0.056,0.125 -0.125,0.125 l -10,0 m -13,0 c -0.069,0 -0.125,-0.055 -0.125,-0.125 0,-0.069 0.056,-0.125 0.125,-0.125 l 10,0 c 0.069,0 0.125,0.056 0.125,0.125 0,0.07 -0.056,0.125 -0.125,0.125 l -10,0 m -13,0 c -0.069,0 -0.125,-0.055 -0.125,-0.125 0,-0.069 0.056,-0.125 0.125,-0.125 l 10,0 c 0.069,0 0.125,0.056 0.125,0.125 0,0.07 -0.056,0.125 -0.125,0.125 l -10,0 m -13,0 c -0.069,0 -0.125,-0.055 -0.125,-0.125 0,-0.069 0.056,-0.125 0.125,-0.125 l 10,0 c 0.069,0 0.125,0.056 0.125,0.125 0,0.07 -0.056,0.125 -0.125,0.125 l -10,0 m -13,0 c -0.069,0 -0.125,-0.055 -0.125,-0.125 0,-0.069 0.056,-0.125 0.125,-0.125 l 10,0 c 0.069,0 0.125,0.056 0.125,0.125 0,0.07 -0.056,0.125 -0.125,0.125 l -10,0 m -13,0 c -0.069,0 -0.125,-0.055 -0.125,-0.125 0,-0.069 0.056,-0.125 0.125,-0.125 l 10,0 c 0.069,0 0.125,0.056 0.125,0.125 0,0.07 -0.056,0.125 -0.125,0.125 l -10,0 m -13,0 c -0.069,0 -0.125,-0.055 -0.125,-0.125 0,-0.069 0.056,-0.125 0.125,-0.125 l 10,0 c 0.069,0 0.125,0.056 0.125,0.125 0,0.07 -0.056,0.125 -0.125,0.125 l -10,0 m -13,0 c -0.069,0 -0.125,-0.055 -0.125,-0.125 0,-0.069 0.056,-0.125 0.125,-0.125 l 10,0 c 0.069,0 0.125,0.056 0.125,0.125 0,0.07 -0.056,0.125 -0.125,0.125 l -10,0 m -13,0 c -0.069,0 -0.125,-0.055 -0.125,-0.125 0,-0.069 0.056,-0.125 0.125,-0.125 l 10,0 c 0.069,0 0.125,0.056 0.125,0.125 0,0.07 -0.056,0.125 -0.125,0.125 l -10,0 m -13,0 c -0.069,0 -0.125,-0.055 -0.125,-0.125 0,-0.069 0.056,-0.125 0.125,-0.125 l 10,0 c 0.069,0 0.125,0.056 0.125,0.125 0,0.07 -0.056,0.125 -0.125,0.125 l -10,0 m -13,0 c -0.069,0 -0.125,-0.055 -0.125,-0.125 0,-0.069 0.056,-0.125 0.125,-0.125 l 10,0 c 0.069,0 0.125,0.056 0.125,0.125 0,0.07 -0.056,0.125 -0.125,0.125 l -10,0 m -13,0 c -0.069,0 -0.125,-0.055 -0.125,-0.125 0,-0.069 0.056,-0.125 0.125,-0.125 l 10,0 c 0.069,0 0.125,0.056 0.125,0.125 0,0.07 -0.056,0.125 -0.125,0.125 l -10,0 m -13,0 c -0.069,0 -0.125,-0.055 -0.125,-0.125 0,-0.069 0.056,-0.125 0.125,-0.125 l 10,0 c 0.069,0 0.125,0.056 0.125,0.125 0,0.07 -0.056,0.125 -0.125,0.125 l -10,0 m -10.54,5.991 c -0.034,0.059 -0.11,0.081 -0.17,0.046 -0.061,-0.034 -0.082,-0.11 -0.048,-0.17 1.635,-2.901 4.443,-5.054 7.78,-5.816 0.068,-0.016 0.134,0.026 0.15,0.094 0.015,0.067 -0.027,0.135 -0.094,0.149 -3.215,0.735 -5.992,2.811 -7.618,5.697 m -1.507,12.611 c 0,0.069 -0.056,0.125 -0.125,0.125 -0.069,0 -0.125,-0.056 -0.125,-0.125 l 0,-6.852 c 0,-1.076 0.142,-2.12 0.408,-3.113 0.018,-0.066 0.086,-0.105 0.153,-0.088 0.067,0.018 0.106,0.086 0.089,0.153 -0.265,0.989 -0.4,2.014 -0.4,3.048 l 0,6.852 m 6.117,10.463 c 0.061,0.033 0.083,0.108 0.05,0.169 -0.033,0.06 -0.11,0.083 -0.17,0.049 -2.925,-1.6 -5.11,-4.384 -5.912,-7.708 -0.016,-0.066 0.025,-0.134 0.092,-0.15 0.067,-0.017 0.134,0.025 0.151,0.092 0.774,3.206 2.884,5.957 5.789,7.548 m 12.633,1.435 c 0.069,0 0.125,0.056 0.125,0.125 0,0.07 -0.056,0.125 -0.125,0.125 l -7,0 c -1.025,0 -2.019,-0.129 -2.969,-0.37 -0.067,-0.017 -0.107,-0.085 -0.09,-0.152 0.017,-0.067 0.085,-0.108 0.152,-0.09 0.944,0.24 1.923,0.362 2.907,0.362 l 7,0 m 13,0 c 0.07,0 0.125,0.056 0.125,0.125 0,0.07 -0.055,0.125 -0.125,0.125 l -10,0 c -0.069,0 -0.125,-0.055 -0.125,-0.125 0,-0.069 0.056,-0.125 0.125,-0.125 l 10,0 m 13,0 c 0.069,0 0.125,0.056 0.125,0.125 0,0.07 -0.056,0.125 -0.125,0.125 l -10,0 c -0.069,0 -0.125,-0.055 -0.125,-0.125 0,-0.069 0.056,-0.125 0.125,-0.125 l 10,0 m 13,0 c 0.069,0 0.125,0.056 0.125,0.125 0,0.07 -0.056,0.125 -0.125,0.125 l -10,0 c -0.069,0 -0.125,-0.055 -0.125,-0.125 0,-0.069 0.056,-0.125 0.125,-0.125 l 10,0 m 13,0 c 0.069,0 0.125,0.056 0.125,0.125 0,0.07 -0.056,0.125 -0.125,0.125 l -10,0 c -0.069,0 -0.125,-0.055 -0.125,-0.125 0,-0.069 0.056,-0.125 0.125,-0.125 l 10,0 m 13,0 c 0.069,0 0.125,0.056 0.125,0.125 0,0.07 -0.056,0.125 -0.125,0.125 l -10,0 c -0.069,0 -0.125,-0.055 -0.125,-0.125 0,-0.069 0.056,-0.125 0.125,-0.125 l 10,0 m 13,0 c 0.07,0 0.125,0.056 0.125,0.125 0,0.07 -0.055,0.125 -0.125,0.125 l -10,0 c -0.069,0 -0.125,-0.055 -0.125,-0.125 0,-0.069 0.056,-0.125 0.125,-0.125 l 10,0 m 13,0 c 0.069,0 0.125,0.056 0.125,0.125 0,0.07 -0.056,0.125 -0.125,0.125 l -10,0 c -0.069,0 -0.125,-0.055 -0.125,-0.125 0,-0.069 0.056,-0.125 0.125,-0.125 l 10,0 m 13,0 c 0.069,0 0.125,0.056 0.125,0.125 0,0.07 -0.056,0.125 -0.125,0.125 l -10,0 c -0.069,0 -0.125,-0.055 -0.125,-0.125 0,-0.069 0.056,-0.125 0.125,-0.125 l 10,0 m 13,0 c 0.069,0 0.125,0.056 0.125,0.125 0,0.07 -0.056,0.125 -0.125,0.125 l -10,0 c -0.069,0 -0.125,-0.055 -0.125,-0.125 0,-0.069 0.056,-0.125 0.125,-0.125 l 10,0 m 13,0 c 0.069,0 0.125,0.056 0.125,0.125 0,0.07 -0.056,0.125 -0.125,0.125 l -10,0 c -0.069,0 -0.125,-0.055 -0.125,-0.125 0,-0.069 0.056,-0.125 0.125,-0.125 l 10,0 m 13,0 c 0.07,0 0.125,0.056 0.125,0.125 0,0.07 -0.055,0.125 -0.125,0.125 l -10,0 c -0.069,0 -0.125,-0.055 -0.125,-0.125 0,-0.069 0.056,-0.125 0.125,-0.125 l 10,0 m 13,0 c 0.069,0 0.125,0.056 0.125,0.125 0,0.07 -0.056,0.125 -0.125,0.125 l -10,0 c -0.069,0 -0.125,-0.055 -0.125,-0.125 0,-0.069 0.056,-0.125 0.125,-0.125 l 10,0 m 13,0 c 0.069,0 0.125,0.056 0.125,0.125 0,0.07 -0.056,0.125 -0.125,0.125 l -10,0 c -0.069,0 -0.125,-0.055 -0.125,-0.125 0,-0.069 0.056,-0.125 0.125,-0.125 l 10,0 m 13,0 c 0.069,0 0.125,0.056 0.125,0.125 0,0.07 -0.056,0.125 -0.125,0.125 l -10,0 c -0.069,0 -0.125,-0.055 -0.125,-0.125 0,-0.069 0.056,-0.125 0.125,-0.125 l 10,0 m 13,0 c 0.069,0 0.125,0.056 0.125,0.125 0,0.07 -0.056,0.125 -0.125,0.125 l -10,0 c -0.069,0 -0.125,-0.055 -0.125,-0.125 0,-0.069 0.056,-0.125 0.125,-0.125 l 10,0 m 13,0 c 0.07,0 0.125,0.056 0.125,0.125 0,0.07 -0.055,0.125 -0.125,0.125 l -10,0 c -0.069,0 -0.125,-0.055 -0.125,-0.125 0,-0.069 0.056,-0.125 0.125,-0.125 l 10,0 m 13,0 c 0.069,0 0.125,0.056 0.125,0.125 0,0.07 -0.056,0.125 -0.125,0.125 l -10,0 c -0.069,0 -0.125,-0.055 -0.125,-0.125 0,-0.069 0.056,-0.125 0.125,-0.125 l 10,0 m 13,0 c 0.069,0 0.125,0.056 0.125,0.125 0,0.07 -0.056,0.125 -0.125,0.125 l -10,0 c -0.069,0 -0.125,-0.055 -0.125,-0.125 0,-0.069 0.056,-0.125 0.125,-0.125 l 10,0 m 13,0 c 0.069,0 0.125,0.056 0.125,0.125 0,0.07 -0.056,0.125 -0.125,0.125 l -10,0 c -0.069,0 -0.125,-0.055 -0.125,-0.125 0,-0.069 0.056,-0.125 0.125,-0.125 l 10,0 m 13,0 c 0.069,0 0.125,0.056 0.125,0.125 0,0.07 -0.056,0.125 -0.125,0.125 l -10,0 c -0.069,0 -0.125,-0.055 -0.125,-0.125 0,-0.069 0.056,-0.125 0.125,-0.125 l 10,0 m 13,0 c 0.07,0 0.125,0.056 0.125,0.125 0,0.07 -0.055,0.125 -0.125,0.125 l -10,0 c -0.069,0 -0.125,-0.055 -0.125,-0.125 0,-0.069 0.056,-0.125 0.125,-0.125 l 10,0 m 13,0 c 0.069,0 0.125,0.056 0.125,0.125 0,0.07 -0.056,0.125 -0.125,0.125 l -10,0 c -0.069,0 -0.125,-0.055 -0.125,-0.125 0,-0.069 0.056,-0.125 0.125,-0.125 l 10,0 m 13,0 c 0.069,0 0.125,0.056 0.125,0.125 0,0.07 -0.056,0.125 -0.125,0.125 l -10,0 c -0.069,0 -0.125,-0.055 -0.125,-0.125 0,-0.069 0.056,-0.125 0.125,-0.125 l 10,0"
       style="fill:#231f20;fill-opacity:1;fill-rule:nonzero;stroke:none"
       id="path518" /></g></g></g><g
   id="g3167"
   inkscape:export-filename="/Users/david/Documents/Business/Qore Technologies/Qorus/graphics/system-architecture5.png"
   inkscape:export-xdpi="107.78938"
   inkscape:export-ydpi="107.78938"><g
     transform="translate(-1.1674,-0.0093)"
     id="g3092"><g
   id="g144"
   transform="translate(707.5996,193.248)"><path
     inkscape:connector-curvature="0"
     d="m 0,0 c 0,-5.566 -4.581,-10.08 -10.228,-10.08 l -159.544,0 C -175.42,-10.08 -180,-5.566 -180,0 l 0,25.363 c 0,5.567 4.58,10.08 10.228,10.08 l 159.544,0 C -4.581,35.443 0,30.93 0,25.363 L 0,0 z"
     style="fill:#f2dd88;fill-opacity:1;fill-rule:nonzero;stroke:none"
     id="path146" /></g><text
   transform="scale(1,-1)"
   id="text152"
   style="font-family:Eurostile;-inkscape-font-specification:Eurostile"
   x="532.23438"
   y="-200.34552"><tspan
     style="font-size:24px;font-variant:normal;font-weight:300;font-stretch:normal;writing-mode:lr-tb;fill:#231f20;fill-opacity:1;fill-rule:nonzero;stroke:none;font-family:Eurostile;-inkscape-font-specification:Eurostile"
     sodipodi:role="line"
     id="tspan154"
     x="532.23438"
     y="-200.34552">Service Manager</tspan></text>

</g><g
     transform="matrix(1.0027079,0,0,1,-0.00812391,0.0098)"
     id="g3086"><g
   id="g20"
   transform="translate(520,195.1494)"><path
     inkscape:connector-curvature="0"
     d="m 0,0 c 0,-6.628 -5.372,-12 -12,-12 l -493,0 c -6.627,0 -12,5.372 -12,12 l 0,21.522 c 0,6.627 5.373,12 12,12 l 493,0 c 6.628,0 12,-5.373 12,-12 L 0,0 z"
     style="fill:#9bca3b;fill-opacity:1;fill-rule:nonzero;stroke:none"
     id="path22" /></g><text
   xml:space="preserve"
   style="font-size:32px;font-style:normal;font-variant:normal;font-weight:normal;font-stretch:normal;text-align:start;line-height:100%;letter-spacing:0px;word-spacing:0px;writing-mode:lr-tb;text-anchor:start;fill:#000000;fill-opacity:1;stroke:none;font-family:Geneva CY;-inkscape-font-specification:Geneva CY"
   x="133.32031"
   y="-198.46509"
   id="text3542"
   sodipodi:linespacing="100%"
   transform="scale(1,-1)"><tspan
     sodipodi:role="line"
     id="tspan3544"
     x="133.32031"
     y="-198.46509"
     style="font-style:normal;font-variant:normal;font-weight:normal;font-stretch:normal;fill:#ffffff;font-family:Eurostile;-inkscape-font-specification:Eurostile">Workflow Manager</tspan></text>

</g></g>
<g
   id="g3098"
   inkscape:export-filename="/Users/david/Documents/Business/Qore Technologies/Qorus/graphics/system-architecture5.png"
   inkscape:export-xdpi="107.78938"
   inkscape:export-ydpi="107.78938"><g
   transform="translate(334.7314,119.6865)"
   id="g36"><path
     id="path38"
     style="fill:#9bca3b;fill-opacity:1;fill-rule:nonzero;stroke:none"
     d="m 0,0 c 0,-6.627 -5.373,-12 -12,-12 l -166,0 c -6.628,0 -12,5.373 -12,12 l 0,46 c 0,6.627 5.372,12 12,12 l 166,0 C -5.373,58 0,52.627 0,46 L 0,0 z" /></g><text
   transform="scale(1,-1)"
   sodipodi:linespacing="100%"
   id="text3566"
   y="-146.68845"
   x="239.53218"
   style="font-size:24px;font-style:normal;font-variant:normal;font-weight:normal;font-stretch:normal;text-align:center;line-height:100%;letter-spacing:0px;word-spacing:0px;writing-mode:lr-tb;text-anchor:middle;fill:#ffffff;fill-opacity:1;stroke:none;font-family:Eurostile;-inkscape-font-specification:Eurostile"
   xml:space="preserve"><tspan
     y="-146.68845"
     x="239.53218"
     id="tspan3568"
     sodipodi:role="line">Workflow</tspan><tspan
     id="tspan3570"
     y="-122.68845"
     x="239.53218"
     sodipodi:role="line">Metadata Cache</tspan></text>

</g>
<g
   id="g3143"
   inkscape:export-filename="/Users/david/Documents/Business/Qore Technologies/Qorus/graphics/system-architecture5.png"
   inkscape:export-xdpi="107.78938"
   inkscape:export-ydpi="107.78938"><g
   transform="translate(705.4072,68.3896)"
   id="g506"><path
     id="path508"
     style="fill:#231f20;fill-opacity:1;fill-rule:nonzero;stroke:none"
     d="M 0,0 C 0.024,-0.064 0.097,-0.097 0.161,-0.072 0.226,-0.047 0.258,0.025 0.233,0.09 -0.977,3.24 -3.477,5.751 -6.62,6.976 -6.684,7.001 -6.757,6.969 -6.781,6.904 -6.807,6.84 -6.774,6.768 -6.71,6.742 -3.631,5.543 -1.185,3.085 0,0 m 0.776,-12.813 c 0,-0.07 0.056,-0.125 0.125,-0.125 0.07,0 0.125,0.055 0.125,0.125 l 0,8.603 c 0,0.472 -0.027,0.937 -0.08,1.394 -0.008,0.068 -0.07,0.118 -0.138,0.11 -0.069,-0.009 -0.119,-0.07 -0.11,-0.139 0.052,-0.45 0.078,-0.909 0.078,-1.365 l 0,-8.603 m 0,-12.999 c -0.001,-0.069 0.055,-0.126 0.124,-0.126 0.07,0 0.125,0.055 0.126,0.125 l 0,0.08 0,9.92 c 0,0.069 -0.055,0.125 -0.125,0.125 -0.069,0 -0.125,-0.056 -0.125,-0.125 l 0,-9.92 0,-0.079 m -6.314,-10.341 c -0.061,-0.032 -0.084,-0.108 -0.053,-0.168 0.032,-0.062 0.108,-0.085 0.169,-0.053 2.96,1.547 5.194,4.293 6.058,7.594 0.017,0.066 -0.023,0.134 -0.089,0.152 -0.067,0.018 -0.135,-0.022 -0.152,-0.089 -0.836,-3.191 -2.999,-5.901 -5.933,-7.436 m -12.664,-1.33 c -0.069,0 -0.125,-0.056 -0.125,-0.125 0,-0.07 0.056,-0.125 0.125,-0.125 l 7.228,0 c 0.946,0 1.866,0.109 2.747,0.316 0.068,0.016 0.11,0.083 0.094,0.149 -0.015,0.068 -0.083,0.11 -0.15,0.094 -0.876,-0.205 -1.781,-0.309 -2.691,-0.309 l -7.228,0 m -13,0 c -0.069,0 -0.125,-0.056 -0.125,-0.125 0,-0.07 0.056,-0.125 0.125,-0.125 l 10,0 c 0.069,0 0.125,0.055 0.125,0.125 0,0.069 -0.056,0.125 -0.125,0.125 l -10,0 m -13,0 c -0.069,0 -0.125,-0.056 -0.125,-0.125 0,-0.07 0.056,-0.125 0.125,-0.125 l 10,0 c 0.069,0 0.125,0.055 0.125,0.125 0,0.069 -0.056,0.125 -0.125,0.125 l -10,0 m -13,0 c -0.069,0 -0.125,-0.056 -0.125,-0.125 0,-0.07 0.056,-0.125 0.125,-0.125 l 10,0 c 0.069,0 0.125,0.055 0.125,0.125 0,0.069 -0.056,0.125 -0.125,0.125 l -10,0 m -13,0 c -0.069,0 -0.125,-0.056 -0.125,-0.125 0,-0.07 0.056,-0.125 0.125,-0.125 l 10,0 c 0.069,0 0.125,0.055 0.125,0.125 0,0.069 -0.056,0.125 -0.125,0.125 l -10,0 m -13,0 c -0.069,0 -0.125,-0.056 -0.125,-0.125 0,-0.07 0.056,-0.125 0.125,-0.125 l 10,0 c 0.069,0 0.125,0.055 0.125,0.125 0,0.069 -0.056,0.125 -0.125,0.125 l -10,0 m -13,0 c -0.069,0 -0.125,-0.056 -0.125,-0.125 0,-0.07 0.056,-0.125 0.125,-0.125 l 10,0 c 0.069,0 0.125,0.055 0.125,0.125 0,0.069 -0.056,0.125 -0.125,0.125 l -10,0 m -13,0 c -0.069,0 -0.125,-0.056 -0.125,-0.125 0,-0.07 0.056,-0.125 0.125,-0.125 l 10,0 c 0.069,0 0.125,0.055 0.125,0.125 0,0.069 -0.056,0.125 -0.125,0.125 l -10,0 m -13,0 c -0.069,0 -0.125,-0.056 -0.125,-0.125 0,-0.07 0.056,-0.125 0.125,-0.125 l 10,0 c 0.069,0 0.125,0.055 0.125,0.125 0,0.069 -0.056,0.125 -0.125,0.125 l -10,0 m -13,0 c -0.069,0 -0.125,-0.056 -0.125,-0.125 0,-0.07 0.056,-0.125 0.125,-0.125 l 10,0 c 0.069,0 0.125,0.055 0.125,0.125 0,0.069 -0.056,0.125 -0.125,0.125 l -10,0 m -13,0 c -0.069,0 -0.125,-0.056 -0.125,-0.125 0,-0.07 0.056,-0.125 0.125,-0.125 l 10,0 c 0.069,0 0.125,0.055 0.125,0.125 0,0.069 -0.056,0.125 -0.125,0.125 l -10,0 m -13,0 c -0.069,0 -0.125,-0.056 -0.125,-0.125 0,-0.07 0.056,-0.125 0.125,-0.125 l 10,0 c 0.069,0 0.125,0.055 0.125,0.125 0,0.069 -0.056,0.125 -0.125,0.125 l -10,0 m -12.429,2.066 c -0.057,0.039 -0.135,0.024 -0.174,-0.032 -0.039,-0.057 -0.024,-0.135 0.033,-0.174 1.932,-1.331 4.274,-2.11 6.797,-2.11 l 2.773,0 c 0.069,0 0.125,0.055 0.125,0.125 0,0.069 -0.056,0.125 -0.125,0.125 l -2.773,0 c -2.391,0 -4.693,0.714 -6.656,2.066 m -5.094,11.06 c 0,0.069 -0.055,0.125 -0.125,0.125 -0.069,0 -0.125,-0.056 -0.125,-0.125 l 0,-1.376 c 0,-3.026 1.121,-5.789 2.967,-7.9 0.046,-0.053 0.125,-0.057 0.177,-0.012 0.052,0.045 0.057,0.124 0.012,0.176 -1.873,2.141 -2.906,4.888 -2.906,7.736 l 0,1.376 m 0,13 c 0,0.069 -0.055,0.125 -0.125,0.125 -0.069,0 -0.125,-0.056 -0.125,-0.125 l 0,-10 c 0,-0.07 0.056,-0.125 0.125,-0.125 0.07,0 0.125,0.055 0.125,0.125 l 0,10 m 1.368,12.653 c 0.032,0.061 0.009,0.137 -0.052,0.17 -0.061,0.032 -0.137,0.009 -0.169,-0.053 -0.892,-1.677 -1.397,-3.591 -1.397,-5.623 l 0,-4.147 c 0,-0.07 0.056,-0.125 0.125,-0.125 0.07,0 0.125,0.055 0.125,0.125 l 0,4.147 c 0,1.919 0.473,3.823 1.368,5.506 m 10.383,6.244 c 0.07,0 0.125,0.056 0.125,0.125 0,0.069 -0.055,0.125 -0.125,0.125 -3.52,0 -6.686,-1.516 -8.881,-3.93 -0.046,-0.05 -0.043,-0.13 0.008,-0.176 0.051,-0.046 0.13,-0.042 0.177,0.008 2.224,2.446 5.393,3.848 8.696,3.848 m 13,0 c 0.07,0 0.125,0.056 0.125,0.125 0,0.069 -0.055,0.125 -0.125,0.125 l -10,0 c -0.069,0 -0.125,-0.056 -0.125,-0.125 0,-0.069 0.056,-0.125 0.125,-0.125 l 10,0 m 13,0 c 0.07,0 0.125,0.056 0.125,0.125 0,0.069 -0.055,0.125 -0.125,0.125 l -10,0 c -0.069,0 -0.125,-0.056 -0.125,-0.125 0,-0.069 0.056,-0.125 0.125,-0.125 l 10,0 m 13,0 c 0.07,0 0.125,0.056 0.125,0.125 0,0.069 -0.055,0.125 -0.125,0.125 l -10,0 c -0.069,0 -0.125,-0.056 -0.125,-0.125 0,-0.069 0.056,-0.125 0.125,-0.125 l 10,0 m 13,0 c 0.07,0 0.125,0.056 0.125,0.125 0,0.069 -0.055,0.125 -0.125,0.125 l -10,0 c -0.069,0 -0.125,-0.056 -0.125,-0.125 0,-0.069 0.056,-0.125 0.125,-0.125 l 10,0 m 13,0 c 0.07,0 0.125,0.056 0.125,0.125 0,0.069 -0.055,0.125 -0.125,0.125 l -10,0 c -0.069,0 -0.125,-0.056 -0.125,-0.125 0,-0.069 0.056,-0.125 0.125,-0.125 l 10,0 m 13,0 c 0.07,0 0.125,0.056 0.125,0.125 0,0.069 -0.055,0.125 -0.125,0.125 l -10,0 c -0.069,0 -0.125,-0.056 -0.125,-0.125 0,-0.069 0.056,-0.125 0.125,-0.125 l 10,0 m 13,0 c 0.07,0 0.125,0.056 0.125,0.125 0,0.069 -0.055,0.125 -0.125,0.125 l -10,0 c -0.069,0 -0.125,-0.056 -0.125,-0.125 0,-0.069 0.056,-0.125 0.125,-0.125 l 10,0 m 13,0 c 0.07,0 0.125,0.056 0.125,0.125 0,0.069 -0.055,0.125 -0.125,0.125 l -10,0 c -0.069,0 -0.125,-0.056 -0.125,-0.125 0,-0.069 0.056,-0.125 0.125,-0.125 l 10,0 m 13,0 c 0.07,0 0.125,0.056 0.125,0.125 0,0.069 -0.055,0.125 -0.125,0.125 l -10,0 c -0.069,0 -0.125,-0.056 -0.125,-0.125 0,-0.069 0.056,-0.125 0.125,-0.125 l 10,0 m 13,0 c 0.07,0 0.125,0.056 0.125,0.125 0,0.069 -0.055,0.125 -0.125,0.125 l -10,0 c -0.069,0 -0.125,-0.056 -0.125,-0.125 0,-0.069 0.056,-0.125 0.125,-0.125 l 10,0 m 13,0 c 0.07,0 0.125,0.056 0.125,0.125 0,0.069 -0.055,0.125 -0.125,0.125 l -10,0 c -0.069,0 -0.125,-0.056 -0.125,-0.125 0,-0.069 0.056,-0.125 0.125,-0.125 l 10,0 M -9.552,7.455 c 0.069,-0.009 0.131,0.04 0.139,0.109 0.009,0.069 -0.04,0.131 -0.109,0.139 -0.476,0.058 -0.96,0.087 -1.452,0.087 l -10,0 c -0.069,0 -0.125,-0.056 -0.125,-0.125 0,-0.069 0.056,-0.125 0.125,-0.125 l 10,0 c 0.475,0 0.953,-0.028 1.422,-0.085" /></g><text
   transform="scale(1,-1)"
   sodipodi:linespacing="100%"
   id="text3583"
   y="-61.098763"
   x="616.6134"
   style="font-size:24px;font-style:normal;font-variant:normal;font-weight:normal;font-stretch:normal;text-align:start;line-height:100%;letter-spacing:0px;word-spacing:0px;writing-mode:lr-tb;text-anchor:start;fill:#000000;fill-opacity:1;stroke:none;font-family:Eurostile;-inkscape-font-specification:Eurostile"
   xml:space="preserve"><tspan
     style="font-size:10px;text-align:center;text-anchor:middle"
     y="-61.098763"
     x="616.6134"
     id="tspan3585"
     sodipodi:role="line">Services can send and receive messages,</tspan><tspan
     style="font-size:10px;text-align:center;text-anchor:middle"
     id="tspan3587"
     y="-51.098763"
     x="616.6134"
     sodipodi:role="line">implement new protocols or high-level</tspan><tspan
     style="font-size:10px;text-align:center;text-anchor:middle"
     id="tspan3589"
     y="-41.098763"
     x="616.6134"
     sodipodi:role="line">functions for external systems, and more.</tspan></text>

</g>
<g
   id="g3130"
   transform="translate(0.83298409,0)"
   inkscape:export-filename="/Users/david/Documents/Business/Qore Technologies/Qorus/graphics/system-architecture5.png"
   inkscape:export-xdpi="107.78938"
   inkscape:export-ydpi="107.78938"><g
   transform="translate(519.54,43.7793)"
   id="g488"><path
     id="path490"
     style="fill:#231f20;fill-opacity:1;fill-rule:nonzero;stroke:none"
     d="M 0,0 C 0.024,-0.064 0.097,-0.097 0.161,-0.071 0.226,-0.047 0.258,0.025 0.233,0.09 -0.978,3.24 -3.478,5.751 -6.621,6.975 -6.686,7 -6.758,6.968 -6.783,6.903 -6.808,6.839 -6.776,6.767 -6.712,6.741 -3.632,5.543 -1.186,3.085 0,0 m 0.777,-12.813 c 0,-0.069 0.056,-0.125 0.125,-0.125 0.07,0 0.125,0.056 0.125,0.125 l 0,8.601 c 0,0.473 -0.027,0.939 -0.08,1.397 -0.008,0.068 -0.07,0.117 -0.138,0.109 C 0.74,-2.714 0.69,-2.775 0.698,-2.845 c 0.053,-0.45 0.079,-0.91 0.079,-1.367 l 0,-8.601 m 0,-12.999 c -0.001,-0.068 0.056,-0.125 0.124,-0.126 0.07,0 0.126,0.056 0.126,0.125 l 0,0.079 0,9.921 c 0,0.069 -0.055,0.125 -0.125,0.125 -0.069,0 -0.125,-0.056 -0.125,-0.125 l 0,-9.921 0,-0.078 m -6.312,-10.341 c -0.062,-0.032 -0.085,-0.108 -0.053,-0.168 0.032,-0.062 0.108,-0.085 0.169,-0.054 2.959,1.548 5.193,4.295 6.057,7.596 0.017,0.066 -0.023,0.134 -0.09,0.152 -0.067,0.018 -0.135,-0.022 -0.152,-0.09 -0.835,-3.191 -2.997,-5.901 -5.931,-7.436 m -12.664,-1.331 c -0.07,0 -0.125,-0.056 -0.125,-0.125 0,-0.07 0.055,-0.125 0.125,-0.125 l 7.226,0 c 0.947,0 1.867,0.109 2.749,0.316 0.068,0.016 0.11,0.083 0.094,0.15 -0.016,0.068 -0.084,0.109 -0.15,0.093 -0.877,-0.205 -1.783,-0.309 -2.693,-0.309 l -7.226,0 m -13,0 c -0.07,0 -0.125,-0.056 -0.125,-0.125 0,-0.07 0.055,-0.125 0.125,-0.125 l 10,0 c 0.068,0 0.125,0.055 0.125,0.125 0,0.069 -0.057,0.125 -0.125,0.125 l -10,0 m -13,0 c -0.07,0 -0.125,-0.056 -0.125,-0.125 0,-0.07 0.055,-0.125 0.125,-0.125 l 10,0 c 0.069,0 0.125,0.055 0.125,0.125 0,0.069 -0.056,0.125 -0.125,0.125 l -10,0 m -13,0 c -0.07,0 -0.125,-0.056 -0.125,-0.125 0,-0.07 0.055,-0.125 0.125,-0.125 l 10,0 c 0.069,0 0.125,0.055 0.125,0.125 0,0.069 -0.056,0.125 -0.125,0.125 l -10,0 m -13,0 c -0.07,0 -0.125,-0.056 -0.125,-0.125 0,-0.07 0.055,-0.125 0.125,-0.125 l 10,0 c 0.069,0 0.125,0.055 0.125,0.125 0,0.069 -0.056,0.125 -0.125,0.125 l -10,0 m -13,0 c -0.07,0 -0.125,-0.056 -0.125,-0.125 0,-0.07 0.055,-0.125 0.125,-0.125 l 10,0 c 0.069,0 0.125,0.055 0.125,0.125 0,0.069 -0.056,0.125 -0.125,0.125 l -10,0 m -13,0 c -0.07,0 -0.125,-0.056 -0.125,-0.125 0,-0.07 0.055,-0.125 0.125,-0.125 l 10,0 c 0.068,0 0.125,0.055 0.125,0.125 0,0.069 -0.057,0.125 -0.125,0.125 l -10,0 m -13,0 c -0.07,0 -0.125,-0.056 -0.125,-0.125 0,-0.07 0.055,-0.125 0.125,-0.125 l 10,0 c 0.068,0 0.125,0.055 0.125,0.125 0,0.069 -0.057,0.125 -0.125,0.125 l -10,0 m -13,0 c -0.07,0 -0.125,-0.056 -0.125,-0.125 0,-0.07 0.055,-0.125 0.125,-0.125 l 10,0 c 0.068,0 0.125,0.055 0.125,0.125 0,0.069 -0.057,0.125 -0.125,0.125 l -10,0 m -13,0 c -0.07,0 -0.125,-0.056 -0.125,-0.125 0,-0.07 0.055,-0.125 0.125,-0.125 l 10,0 c 0.068,0 0.125,0.055 0.125,0.125 0,0.069 -0.057,0.125 -0.125,0.125 l -10,0 m -13,0 c -0.07,0 -0.125,-0.056 -0.125,-0.125 0,-0.07 0.055,-0.125 0.125,-0.125 l 10,0 c 0.068,0 0.125,0.055 0.125,0.125 0,0.069 -0.057,0.125 -0.125,0.125 l -10,0 m -13,0 c -0.07,0 -0.125,-0.056 -0.125,-0.125 0,-0.07 0.055,-0.125 0.125,-0.125 l 10,0 c 0.068,0 0.125,0.055 0.125,0.125 0,0.069 -0.057,0.125 -0.125,0.125 l -10,0 m -12.429,2.065 c -0.058,0.039 -0.135,0.024 -0.174,-0.032 -0.039,-0.057 -0.025,-0.135 0.032,-0.174 1.932,-1.33 4.273,-2.109 6.797,-2.109 l 2.773,0 c 0.07,0 0.125,0.055 0.125,0.125 0,0.069 -0.055,0.125 -0.125,0.125 l -2.773,0 c -2.392,0 -4.693,0.713 -6.655,2.065 m -5.095,11.06 c 0,0.068 -0.056,0.125 -0.125,0.125 -0.069,0 -0.125,-0.057 -0.125,-0.125 l 0,-1.375 c 0,-3.026 1.12,-5.79 2.968,-7.902 0.045,-0.052 0.124,-0.056 0.176,-0.011 0.052,0.045 0.058,0.125 0.012,0.176 -1.874,2.141 -2.906,4.889 -2.906,7.737 l 0,1.375 m 0,13 c 0,0.068 -0.056,0.125 -0.125,0.125 -0.069,0 -0.125,-0.057 -0.125,-0.125 l 0,-10 c 0,-0.07 0.056,-0.125 0.125,-0.125 0.069,0 0.125,0.055 0.125,0.125 l 0,10 m 1.367,12.653 c 0.033,0.06 0.009,0.137 -0.052,0.169 -0.061,0.032 -0.136,0.01 -0.169,-0.052 -0.891,-1.677 -1.396,-3.591 -1.396,-5.623 l 0,-4.147 c 0,-0.07 0.056,-0.125 0.125,-0.125 0.069,0 0.125,0.055 0.125,0.125 l 0,4.147 c 0,1.919 0.473,3.823 1.367,5.506 m 10.383,6.244 c 0.069,0 0.125,0.056 0.125,0.125 0,0.069 -0.056,0.125 -0.125,0.125 -3.52,0 -6.686,-1.516 -8.881,-3.93 -0.047,-0.051 -0.043,-0.13 0.008,-0.176 0.051,-0.047 0.13,-0.043 0.177,0.008 2.223,2.446 5.393,3.848 8.696,3.848 m 13,0 c 0.07,0 0.125,0.056 0.125,0.125 0,0.069 -0.055,0.125 -0.125,0.125 l -10,0 c -0.069,0 -0.125,-0.056 -0.125,-0.125 0,-0.069 0.056,-0.125 0.125,-0.125 l 10,0 m 13,0 c 0.07,0 0.125,0.056 0.125,0.125 0,0.069 -0.055,0.125 -0.125,0.125 l -10,0 c -0.069,0 -0.125,-0.056 -0.125,-0.125 0,-0.069 0.056,-0.125 0.125,-0.125 l 10,0 m 13,0 c 0.07,0 0.125,0.056 0.125,0.125 0,0.069 -0.055,0.125 -0.125,0.125 l -10,0 c -0.069,0 -0.125,-0.056 -0.125,-0.125 0,-0.069 0.056,-0.125 0.125,-0.125 l 10,0 m 13,0 c 0.07,0 0.125,0.056 0.125,0.125 0,0.069 -0.055,0.125 -0.125,0.125 l -10,0 c -0.069,0 -0.125,-0.056 -0.125,-0.125 0,-0.069 0.056,-0.125 0.125,-0.125 l 10,0 m 13,0 c 0.07,0 0.125,0.056 0.125,0.125 0,0.069 -0.055,0.125 -0.125,0.125 l -10,0 c -0.069,0 -0.125,-0.056 -0.125,-0.125 0,-0.069 0.056,-0.125 0.125,-0.125 l 10,0 m 13,0 c 0.07,0 0.125,0.056 0.125,0.125 0,0.069 -0.055,0.125 -0.125,0.125 l -10,0 c -0.069,0 -0.125,-0.056 -0.125,-0.125 0,-0.069 0.056,-0.125 0.125,-0.125 l 10,0 m 13,0 c 0.07,0 0.125,0.056 0.125,0.125 0,0.069 -0.055,0.125 -0.125,0.125 l -10,0 c -0.069,0 -0.125,-0.056 -0.125,-0.125 0,-0.069 0.056,-0.125 0.125,-0.125 l 10,0 m 13,0 c 0.07,0 0.125,0.056 0.125,0.125 0,0.069 -0.055,0.125 -0.125,0.125 l -10,0 c -0.069,0 -0.125,-0.056 -0.125,-0.125 0,-0.069 0.056,-0.125 0.125,-0.125 l 10,0 m 13,0 c 0.07,0 0.125,0.056 0.125,0.125 0,0.069 -0.055,0.125 -0.125,0.125 l -10,0 c -0.069,0 -0.125,-0.056 -0.125,-0.125 0,-0.069 0.056,-0.125 0.125,-0.125 l 10,0 m 13,0 c 0.07,0 0.125,0.056 0.125,0.125 0,0.069 -0.055,0.125 -0.125,0.125 l -10,0 c -0.069,0 -0.125,-0.056 -0.125,-0.125 0,-0.069 0.056,-0.125 0.125,-0.125 l 10,0 m 13,0 c 0.07,0 0.125,0.056 0.125,0.125 0,0.069 -0.055,0.125 -0.125,0.125 l -10,0 c -0.069,0 -0.125,-0.056 -0.125,-0.125 0,-0.069 0.056,-0.125 0.125,-0.125 l 10,0 M -9.554,7.453 c 0.069,-0.008 0.131,0.041 0.14,0.11 0.008,0.068 -0.041,0.13 -0.109,0.138 -0.476,0.058 -0.959,0.087 -1.45,0.087 l -10,0 c -0.069,0 -0.125,-0.056 -0.125,-0.125 0,-0.069 0.056,-0.125 0.125,-0.125 l 10,0 c 0.474,0 0.952,-0.028 1.419,-0.085"
     inkscape:connector-curvature="0" /></g><text
   transform="scale(1,-1)"
   sodipodi:linespacing="100%"
   id="text3600"
   y="-35.473782"
   x="430.75497"
   style="font-size:10px;font-style:normal;font-variant:normal;font-weight:normal;font-stretch:normal;text-align:center;line-height:100%;letter-spacing:0px;word-spacing:0px;writing-mode:lr-tb;text-anchor:middle;fill:#000000;fill-opacity:1;stroke:none;font-family:Eurostile;-inkscape-font-specification:Eurostile"
   xml:space="preserve"><tspan
     y="-35.473782"
     x="430.75497"
     id="tspan3602"
     sodipodi:role="line">Workflows can generate messages</tspan><tspan
     id="tspan3604"
     y="-25.473782"
     x="430.75497"
     sodipodi:role="line">directly, or use system API calls or</tspan><tspan
     id="tspan3606"
     y="-15.473782"
     x="430.75497"
     sodipodi:role="line">service methods.</tspan><tspan
     id="tspan3608"
     y="-5.4737816"
     x="430.75497"
     sodipodi:role="line" /></text>

</g>
<g
   id="g3316"><g
     id="g4401"
     transform="translate(49.439935,0.2330727)"><g
   style="stroke:none"
   transform="matrix(0.6057955,0,0,1,154.8336,285.1143)"
   id="g64"><path
     inkscape:connector-curvature="0"
     id="path66"
     style="fill:#f5d43d;fill-opacity:1;fill-rule:nonzero;stroke:none"
     d="m 0,0 -187.201,0 c -6.686,0 -12.126,3.831 -12.126,8.539 l 0,28.693 c 0,4.708 5.44,8.539 12.126,8.539 L 0,45.771 c 6.686,0 12.124,-3.831 12.124,-8.539 l 0,-28.693 C 12.124,3.831 6.686,0 0,0" /></g><text
   y="-299.24326"
   x="53.25898"
   style="font-size:12px;font-family:Eurostile;-inkscape-font-specification:Eurostile"
   id="text72"
   transform="matrix(0.99997674,0.00682085,0.00682085,-0.99997674,0,0)"><tspan
     id="tspan74"
     sodipodi:role="line"
     y="-299.24326"
     x="53.25898"
     style="font-size:23.99995804px;font-variant:normal;font-weight:300;font-stretch:normal;writing-mode:lr-tb;fill:#231f20;fill-opacity:1;fill-rule:nonzero;stroke:none;font-family:Eurostile;-inkscape-font-specification:Eurostile">XML-RPC</tspan></text>


</g><g
     id="g4550"
     transform="translate(43.092789,0.1178727)"><g
   transform="matrix(0.62522635,0,0,1,299.50644,285.229)"
   id="g520"><path
     inkscape:connector-curvature="0"
     id="path522"
     style="fill:#f5d43d;fill-opacity:1;fill-rule:nonzero;stroke:none"
     d="m 0,0 -187.2,0 c -6.686,0 -12.125,3.829 -12.125,8.537 l 0,28.695 c 0,4.708 5.439,8.54 12.125,8.54 l 187.2,0 c 6.686,0 12.125,-3.832 12.125,-8.54 l 0,-28.695 C 12.125,3.829 6.686,0 0,0" /></g><text
   y="-300.11694"
   x="188.25674"
   id="text528"
   transform="scale(1,-1)"><tspan
     id="tspan530"
     sodipodi:role="line"
     y="-300.11694"
     x="188.25674"
     style="font-size:24px;font-variant:normal;font-weight:300;font-stretch:normal;writing-mode:lr-tb;fill:#000000;fill-opacity:1;fill-rule:nonzero;stroke:none;font-family:Eurostile;-inkscape-font-specification:Eurostile">JSON-RPC</tspan></text>


</g><g
     id="g4407"
     transform="translate(-111.21033,1.2335687)"><g
   transform="matrix(0.62800245,0,0,1,592.92479,284.1143)"
   id="g532"><path
     inkscape:connector-curvature="0"
     id="path534"
     style="fill:#f5d43d;fill-opacity:1;fill-rule:nonzero;stroke:none"
     d="m 0,0 -187.2,0 c -6.687,0 -12.125,3.829 -12.125,8.539 l 0,28.694 c 0,4.707 5.438,8.537 12.125,8.537 l 187.2,0 c 6.687,0 12.125,-3.83 12.125,-8.537 l 0,-28.694 C 12.125,3.829 6.687,0 0,0" /><use
     x="0"
     y="0"
     xlink:href="#path534"
     id="use3210"
     width="890"
     height="543.75" /></g><text
   y="-299.00125"
   x="480.09689"
   id="text540"
   transform="scale(1,-1)"><tspan
     y="-299.00125"
     id="tspan542"
     sodipodi:role="line"
     x="480.09689"
     style="font-size:24px;font-style:normal;font-variant:normal;font-weight:normal;font-stretch:normal;writing-mode:lr-tb;fill:#000000;fill-opacity:1;fill-rule:nonzero;stroke:none;font-family:Eurostile;-inkscape-font-specification:Eurostile">YAML-RPC</tspan></text>


</g><g
     id="g3224"
     transform="translate(27.938625,1.2335706)"><g
   transform="matrix(0.62800245,0,0,1,592.92479,284.1143)"
   id="g3214"><path
     inkscape:connector-curvature="0"
     id="path3216"
     style="fill:#f5d43d;fill-opacity:1;fill-rule:nonzero;stroke:none"
     d="m 0,0 -187.2,0 c -6.687,0 -12.125,3.829 -12.125,8.539 l 0,28.694 c 0,4.707 5.438,8.537 12.125,8.537 l 187.2,0 c 6.687,0 12.125,-3.83 12.125,-8.537 l 0,-28.694 C 12.125,3.829 6.687,0 0,0" /><use
     height="543.75"
     width="890"
     x="0"
     y="0"
     xlink:href="#path534"
     id="use3218" /></g><text
   y="-299.00125"
   x="505.62619"
   id="text3220"
   transform="scale(1,-1)"><tspan
     y="-299.00125"
     id="tspan3222"
     sodipodi:role="line"
     x="505.62619"
     style="font-size:24px;font-style:normal;font-variant:normal;font-weight:normal;font-stretch:normal;writing-mode:lr-tb;fill:#000000;fill-opacity:1;fill-rule:nonzero;stroke:none;font-family:Eurostile;-inkscape-font-specification:Eurostile">SOAP</tspan></text>

</g></g></g></g></g></svg>