<?xml version="1.0" encoding="UTF-8" standalone="no"?>
<!DOCTYPE svg PUBLIC "-//W3C//DTD SVG 1.1//EN" "http://www.w3.org/Graphics/SVG/1.1/DTD/svg11.dtd">
<svg width="100%" height="100%" viewBox="0 0 890 544" version="1.1" xmlns="http://www.w3.org/2000/svg" xmlns:xlink="http://www.w3.org/1999/xlink" xml:space="preserve" xmlns:serif="http://www.serif.com/" style="fill-rule:evenodd;clip-rule:evenodd;stroke-linejoin:round;stroke-miterlimit:1.41421;">
    <g transform="matrix(1.25,0,0,-1.25,0,543.75)">
        <g id="g12">
            <g id="rect4183" transform="matrix(1,0,0,-1,0,0)">
                <path d="M438.831,-376.463C438.831,-380.732 435.365,-384.198 431.096,-384.198L280.904,-384.198C276.635,-384.198 273.169,-380.732 273.169,-376.463L273.169,-346.165C273.169,-341.896 276.635,-338.43 280.904,-338.43L431.096,-338.43C435.365,-338.43 438.831,-341.896 438.831,-346.165L438.831,-376.463Z" style="fill:rgb(247,172,14);"/>
            </g>
            <path id="path46" d="M335.805,116.994C335.805,110.367 329.104,104.994 320.838,104.994L182.394,104.994C174.129,104.994 167.427,110.367 167.427,116.994L167.427,162.994C167.427,169.621 174.129,174.994 182.394,174.994L320.838,174.994C329.104,174.994 335.805,169.621 335.805,162.994L335.805,116.994Z" style="fill:rgb(155,202,59);fill-rule:nonzero;"/>
            <g id="text3552" transform="matrix(1,0,0,-1,0,0)">
                <g transform="matrix(1,0,0,1,251.534,-143.996)">
                    <g transform="matrix(22.4,0,0,22.4,78.9469,0)">
                    </g>
                    <text x="-78.947px" y="0px" style="font-family:'LucidaGrande', 'Lucida Grande', sans-serif;font-weight:500;font-size:22.4px;fill:white;">Workflow Data</text>
                </g>
                <g transform="matrix(1,0,0,1,249.934,-119.996)">
                    <g transform="matrix(22.4,0,0,22.4,61.2227,0)">
                    </g>
                    <text x="-61.223px" y="0px" style="font-family:'LucidaGrande', 'Lucida Grande', sans-serif;font-weight:500;font-size:22.4px;fill:white;">&amp; Metadata</text>
                </g>
            </g>
            <g transform="matrix(1,0,0,-1,286.899,353.316)">
                <g id="text60">
                    <g transform="matrix(24,0,0,24,140.578,0)">
                    </g>
                    <text x="0px" y="0px" style="font-family:'LucidaGrande', 'Lucida Grande', sans-serif;font-weight:500;font-size:24px;fill:white;">HTTP Server</text>
                </g>
            </g>
            <g id="text132">
            </g>
            <g id="g3124" transform="matrix(1,0,0,1,-0.9731,-3.2)">
                <g id="path260" transform="matrix(1,0,0,1,707.405,91.1133)">
                    <path d="M0,0C0,-5.566 -4.581,-10.079 -10.228,-10.079L-169.772,-10.079C-175.42,-10.079 -180,-5.566 -180,0L-180,25.364C-180,30.931 -175.42,35.443 -169.772,35.443L-10.228,35.443C-4.581,35.443 0,30.931 0,25.364L0,0Z" style="fill:rgb(255,248,197);fill-rule:nonzero;"/>
                </g>
                <g transform="matrix(1,0,0,-1,535.299,97.0598)">
                    <g id="text266">
                        <g transform="matrix(22.4,0,0,22.4,164.883,0)">
                        </g>
                        <text x="0px" y="0px" style="font-family:'LucidaGrande', 'Lucida Grande', sans-serif;font-weight:500;font-size:22.4px;fill:rgb(35,31,32);">Service Objects</text>
                    </g>
                </g>
            </g>
            <g id="g3179" transform="matrix(1,0,0,1,0,-3.2)">
                <g id="g3118" transform="matrix(1,0,0,1,-0.7348,-0.06735)">
                    <g id="path212" transform="matrix(1,0,0,1,707.167,142.352)">
                        <path d="M0,0C0,-5.566 -4.581,-10.079 -10.228,-10.079L-169.772,-10.079C-175.42,-10.079 -180,-5.566 -180,0L-180,25.364C-180,30.931 -175.42,35.443 -169.772,35.443L-10.228,35.443C-4.581,35.443 0,30.931 0,25.364L0,0Z" style="fill:rgb(255,248,197);fill-rule:nonzero;"/>
                    </g>
                    <g transform="matrix(1,0,0,-1,556.383,146.471)">
                        <g id="text218">
                            <g transform="matrix(24,0,0,24,125.473,0)">
                            </g>
                            <text x="0px" y="0px" style="font-family:'LucidaGrande', 'Lucida Grande', sans-serif;font-weight:500;font-size:24px;fill:rgb(35,31,32);">Service API</text>
                        </g>
                    </g>
                </g>
                <g id="g3105" transform="matrix(1,0,0,1,0.581584,0.06785)">
                    <g id="path328" transform="matrix(1,0,0,1,520.818,142.217)">
                        <path d="M0,0C0,-5.566 -4.581,-10.078 -10.228,-10.078L-169.772,-10.078C-175.42,-10.078 -180,-5.566 -180,0L-180,25.365C-180,30.932 -175.42,35.443 -169.772,35.443L-10.228,35.443C-4.581,35.443 0,30.932 0,25.365L0,0Z" style="fill:rgb(200,247,82);fill-rule:nonzero;"/>
                    </g>
                    <g transform="matrix(1,0,0,-1,355.391,146.901)">
                        <g id="text334">
                            <g transform="matrix(24,0,0,24,152.449,0)">
                            </g>
                            <text x="0px" y="0px" style="font-family:'LucidaGrande', 'Lucida Grande', sans-serif;font-weight:500;font-size:24px;fill:rgb(35,31,32);">Workflow API</text>
                        </g>
                    </g>
                </g>
            </g>
            <g transform="matrix(1,0,0,0.44769,521.4,97.0127)">
                <g id="g3111">
                    <path id="path378" d="M0,0C0,-6.627 -5.373,-12 -12,-12L-168,-12C-174.628,-12 -180,-6.627 -180,0L-180,46C-180,52.627 -174.628,58 -168,58L-12,58C-5.373,58 0,52.627 0,46L0,0Z" style="fill:rgb(200,247,82);fill-rule:nonzero;"/>
                </g>
            </g>
            <g id="text416">
            </g>
            <g id="text476" transform="matrix(1,0,0,-1,0,0)">
                <g transform="matrix(1,0,0,1,355.797,-418.606)">
                    <g transform="matrix(10,0,0,10,65.7544,0)">
                    </g>
                    <text x="-65.754px" y="0px" style="font-family:'LucidaGrande', 'Lucida Grande', sans-serif;font-weight:500;font-size:10px;fill:white;">The built-in HTTP(S) server</text>
                </g>
                <g transform="matrix(1,0,0,1,357.047,-406.106)">
                    <g transform="matrix(10,0,0,10,79.3188,0)">
                    </g>
                    <text x="-76.155px" y="0px" style="font-family:'LucidaGrande', 'Lucida Grande', sans-serif;font-weight:500;font-size:10px;fill:white;">exports the system API, events,</text>
                </g>
                <g transform="matrix(1,0,0,1,355.797,-393.606)">
                    <g transform="matrix(10,0,0,10,79.0649,0)">
                    </g>
                    <text x="-79.065px" y="0px" style="font-family:'LucidaGrande', 'Lucida Grande', sans-serif;font-weight:500;font-size:10px;fill:white;">and user services to the network</text>
                </g>
            </g>
            <g id="text492">
            </g>
            <g id="text510" transform="matrix(1,0,0,-1,0,0)">
                <g transform="matrix(1,0,0,1,251.222,-89.9218)">
                    <g transform="matrix(10,0,0,10,69.5679,0)">
                    </g>
                    <text x="-69.568px" y="0px" style="font-family:'LucidaGrande', 'Lucida Grande', sans-serif;font-weight:500;font-size:10px;fill:white;">Workflow caches ensure that</text>
                </g>
                <g transform="matrix(1,0,0,1,251.222,-77.4218)">
                    <g transform="matrix(10,0,0,10,74.8315,0)">
                    </g>
                    <text x="-74.832px" y="0px" style="font-family:'LucidaGrande', 'Lucida Grande', sans-serif;font-weight:500;font-size:10px;fill:white;">database activity is minimized,</text>
                </g>
                <g transform="matrix(1,0,0,1,251.222,-64.9218)">
                    <g transform="matrix(10,0,0,10,78.1104,0)">
                    </g>
                    <text x="-78.11px" y="0px" style="font-family:'LucidaGrande', 'Lucida Grande', sans-serif;font-weight:500;font-size:10px;fill:white;">while ensuring that needed data</text>
                </g>
                <g transform="matrix(1,0,0,1,251.222,-52.4218)">
                    <g transform="matrix(10,0,0,10,81.8921,0)">
                    </g>
                    <text x="-81.892px" y="0px" style="font-family:'LucidaGrande', 'Lucida Grande', sans-serif;font-weight:500;font-size:10px;fill:white;">is available and a safe transaction</text>
                </g>
                <g transform="matrix(1,0,0,1,251.222,-39.9218)">
                    <g transform="matrix(10,0,0,10,44.5142,0)">
                    </g>
                    <text x="-44.514px" y="0px" style="font-family:'LucidaGrande', 'Lucida Grande', sans-serif;font-weight:500;font-size:10px;fill:white;">model is followed.</text>
                </g>
            </g>
            <g id="g3092" transform="matrix(1,0,0,1,-1.1674,-4.8093)">
                <g id="path146" transform="matrix(1,0,0,1,707.6,193.248)">
                    <path d="M0,0C0,-5.566 -4.581,-10.08 -10.228,-10.08L-169.772,-10.08C-175.42,-10.08 -180,-5.566 -180,0L-180,25.363C-180,30.93 -175.42,35.443 -169.772,35.443L-10.228,35.443C-4.581,35.443 0,30.93 0,25.363L0,0Z" style="fill:rgb(242,221,136);fill-rule:nonzero;"/>
                </g>
                <g transform="matrix(1,0,0,-1,532.234,200.346)">
                    <g id="text152">
                        <g transform="matrix(21.6,0,0,21.6,170.068,0)">
                        </g>
                        <text x="0px" y="0px" style="font-family:'LucidaGrande', 'Lucida Grande', sans-serif;font-weight:500;font-size:21.6px;fill:rgb(35,31,32);">Service Manager</text>
                    </g>
                </g>
            </g>
            <g id="path22" transform="matrix(0.681752,0,0,-1,521.4,211.881)">
                <path d="M0,0C0,-6.628 -5.372,-12 -12,-12L-505,-12C-511.627,-12 -517,-6.628 -517,0L-517,21.522C-517,28.149 -511.627,33.522 -505,33.522L-12,33.522C-5.372,33.522 0,28.149 0,21.522L0,0Z" style="fill:rgb(155,202,59);fill-rule:nonzero;"/>
            </g>
            <g transform="matrix(1.00135,0,0,-0.998649,200.873,192.075)">
                <g id="text3542">
                    <g transform="matrix(32.0433,0,0,32.0433,288.311,0)">
                    </g>
                    <text x="0px" y="0px" style="font-family:'LucidaGrande', 'Lucida Grande', sans-serif;font-weight:500;font-size:32.043px;fill:white;">Workflow Manager</text>
                </g>
            </g>
            <g id="g3143" transform="matrix(1,0,0,1,0,-20.8)">
                <g id="path508" transform="matrix(1,0,0,1,705.407,68.3896)">
                    <path d="M0,0C0.024,-0.064 0.097,-0.097 0.161,-0.072C0.226,-0.047 0.258,0.025 0.233,0.09C-0.977,3.24 -3.477,5.751 -6.62,6.976C-6.684,7.001 -6.757,6.969 -6.781,6.904C-6.807,6.84 -6.774,6.768 -6.71,6.742C-3.631,5.543 -1.185,3.085 0,0M0.776,-12.813C0.776,-12.883 0.832,-12.938 0.901,-12.938C0.971,-12.938 1.026,-12.883 1.026,-12.813L1.026,-4.21C1.026,-3.738 0.999,-3.273 0.946,-2.816C0.938,-2.748 0.876,-2.698 0.808,-2.706C0.739,-2.715 0.689,-2.776 0.698,-2.845C0.75,-3.295 0.776,-3.754 0.776,-4.21L0.776,-12.813M0.776,-25.812C0.775,-25.881 0.831,-25.938 0.9,-25.938C0.97,-25.938 1.025,-25.883 1.026,-25.813L1.026,-15.813C1.026,-15.744 0.971,-15.688 0.901,-15.688C0.832,-15.688 0.776,-15.744 0.776,-15.813L0.776,-25.812M-5.538,-36.153C-5.599,-36.185 -5.622,-36.261 -5.591,-36.321C-5.559,-36.383 -5.483,-36.406 -5.422,-36.374C-2.462,-34.827 -0.228,-32.081 0.636,-28.78C0.653,-28.714 0.613,-28.646 0.547,-28.628C0.48,-28.61 0.412,-28.65 0.395,-28.717C-0.441,-31.908 -2.604,-34.618 -5.538,-36.153M-18.202,-37.483C-18.271,-37.483 -18.327,-37.539 -18.327,-37.608C-18.327,-37.678 -18.271,-37.733 -18.202,-37.733L-10.974,-37.733C-10.028,-37.733 -9.108,-37.624 -8.227,-37.417C-8.159,-37.401 -8.117,-37.334 -8.133,-37.268C-8.148,-37.2 -8.216,-37.158 -8.283,-37.174C-9.159,-37.379 -10.064,-37.483 -10.974,-37.483L-18.202,-37.483M-31.202,-37.483C-31.271,-37.483 -31.327,-37.539 -31.327,-37.608C-31.327,-37.678 -31.271,-37.733 -31.202,-37.733L-21.202,-37.733C-21.133,-37.733 -21.077,-37.678 -21.077,-37.608C-21.077,-37.539 -21.133,-37.483 -21.202,-37.483L-31.202,-37.483M-44.202,-37.483C-44.271,-37.483 -44.327,-37.539 -44.327,-37.608C-44.327,-37.678 -44.271,-37.733 -44.202,-37.733L-34.202,-37.733C-34.133,-37.733 -34.077,-37.678 -34.077,-37.608C-34.077,-37.539 -34.133,-37.483 -34.202,-37.483L-44.202,-37.483M-57.202,-37.483C-57.271,-37.483 -57.327,-37.539 -57.327,-37.608C-57.327,-37.678 -57.271,-37.733 -57.202,-37.733L-47.202,-37.733C-47.133,-37.733 -47.077,-37.678 -47.077,-37.608C-47.077,-37.539 -47.133,-37.483 -47.202,-37.483L-57.202,-37.483M-70.202,-37.483C-70.271,-37.483 -70.327,-37.539 -70.327,-37.608C-70.327,-37.678 -70.271,-37.733 -70.202,-37.733L-60.202,-37.733C-60.133,-37.733 -60.077,-37.678 -60.077,-37.608C-60.077,-37.539 -60.133,-37.483 -60.202,-37.483L-70.202,-37.483M-83.202,-37.483C-83.271,-37.483 -83.327,-37.539 -83.327,-37.608C-83.327,-37.678 -83.271,-37.733 -83.202,-37.733L-73.202,-37.733C-73.133,-37.733 -73.077,-37.678 -73.077,-37.608C-73.077,-37.539 -73.133,-37.483 -73.202,-37.483L-83.202,-37.483M-96.202,-37.483C-96.271,-37.483 -96.327,-37.539 -96.327,-37.608C-96.327,-37.678 -96.271,-37.733 -96.202,-37.733L-86.202,-37.733C-86.133,-37.733 -86.077,-37.678 -86.077,-37.608C-86.077,-37.539 -86.133,-37.483 -86.202,-37.483L-96.202,-37.483M-109.202,-37.483C-109.271,-37.483 -109.327,-37.539 -109.327,-37.608C-109.327,-37.678 -109.271,-37.733 -109.202,-37.733L-99.202,-37.733C-99.133,-37.733 -99.077,-37.678 -99.077,-37.608C-99.077,-37.539 -99.133,-37.483 -99.202,-37.483L-109.202,-37.483M-122.202,-37.483C-122.271,-37.483 -122.327,-37.539 -122.327,-37.608C-122.327,-37.678 -122.271,-37.733 -122.202,-37.733L-112.202,-37.733C-112.133,-37.733 -112.077,-37.678 -112.077,-37.608C-112.077,-37.539 -112.133,-37.483 -112.202,-37.483L-122.202,-37.483M-135.202,-37.483C-135.271,-37.483 -135.327,-37.539 -135.327,-37.608C-135.327,-37.678 -135.271,-37.733 -135.202,-37.733L-125.202,-37.733C-125.133,-37.733 -125.077,-37.678 -125.077,-37.608C-125.077,-37.539 -125.133,-37.483 -125.202,-37.483L-135.202,-37.483M-148.202,-37.483C-148.271,-37.483 -148.327,-37.539 -148.327,-37.608C-148.327,-37.678 -148.271,-37.733 -148.202,-37.733L-138.202,-37.733C-138.133,-37.733 -138.077,-37.678 -138.077,-37.608C-138.077,-37.539 -138.133,-37.483 -138.202,-37.483L-148.202,-37.483M-161.202,-37.483C-161.271,-37.483 -161.327,-37.539 -161.327,-37.608C-161.327,-37.678 -161.271,-37.733 -161.202,-37.733L-151.202,-37.733C-151.133,-37.733 -151.077,-37.678 -151.077,-37.608C-151.077,-37.539 -151.133,-37.483 -151.202,-37.483L-161.202,-37.483M-173.631,-35.417C-173.688,-35.378 -173.766,-35.393 -173.805,-35.449C-173.844,-35.506 -173.829,-35.584 -173.772,-35.623C-171.84,-36.954 -169.498,-37.733 -166.975,-37.733L-164.202,-37.733C-164.133,-37.733 -164.077,-37.678 -164.077,-37.608C-164.077,-37.539 -164.133,-37.483 -164.202,-37.483L-166.975,-37.483C-169.366,-37.483 -171.668,-36.769 -173.631,-35.417M-178.725,-24.357C-178.725,-24.288 -178.78,-24.232 -178.85,-24.232C-178.919,-24.232 -178.975,-24.288 -178.975,-24.357L-178.975,-25.733C-178.975,-28.759 -177.854,-31.522 -176.008,-33.633C-175.962,-33.686 -175.883,-33.69 -175.831,-33.645C-175.779,-33.6 -175.774,-33.521 -175.819,-33.469C-177.692,-31.328 -178.725,-28.581 -178.725,-25.733L-178.725,-24.357M-178.725,-11.357C-178.725,-11.288 -178.78,-11.232 -178.85,-11.232C-178.919,-11.232 -178.975,-11.288 -178.975,-11.357L-178.975,-21.357C-178.975,-21.427 -178.919,-21.482 -178.85,-21.482C-178.78,-21.482 -178.725,-21.427 -178.725,-21.357L-178.725,-11.357M-177.357,1.296C-177.325,1.357 -177.348,1.433 -177.409,1.466C-177.47,1.498 -177.546,1.475 -177.578,1.413C-178.47,-0.264 -178.975,-2.178 -178.975,-4.21L-178.975,-8.357C-178.975,-8.427 -178.919,-8.482 -178.85,-8.482C-178.78,-8.482 -178.725,-8.427 -178.725,-8.357L-178.725,-4.21C-178.725,-2.291 -178.252,-0.387 -177.357,1.296M-166.974,7.54C-166.904,7.54 -166.849,7.596 -166.849,7.665C-166.849,7.734 -166.904,7.79 -166.974,7.79C-170.494,7.79 -173.66,6.274 -175.855,3.86C-175.901,3.81 -175.898,3.73 -175.847,3.684C-175.796,3.638 -175.717,3.642 -175.67,3.692C-173.446,6.138 -170.277,7.54 -166.974,7.54M-153.974,7.54C-153.904,7.54 -153.849,7.596 -153.849,7.665C-153.849,7.734 -153.904,7.79 -153.974,7.79L-163.974,7.79C-164.043,7.79 -164.099,7.734 -164.099,7.665C-164.099,7.596 -164.043,7.54 -163.974,7.54L-153.974,7.54M-140.974,7.54C-140.904,7.54 -140.849,7.596 -140.849,7.665C-140.849,7.734 -140.904,7.79 -140.974,7.79L-150.974,7.79C-151.043,7.79 -151.099,7.734 -151.099,7.665C-151.099,7.596 -151.043,7.54 -150.974,7.54L-140.974,7.54M-127.974,7.54C-127.904,7.54 -127.849,7.596 -127.849,7.665C-127.849,7.734 -127.904,7.79 -127.974,7.79L-137.974,7.79C-138.043,7.79 -138.099,7.734 -138.099,7.665C-138.099,7.596 -138.043,7.54 -137.974,7.54L-127.974,7.54M-114.974,7.54C-114.904,7.54 -114.849,7.596 -114.849,7.665C-114.849,7.734 -114.904,7.79 -114.974,7.79L-124.974,7.79C-125.043,7.79 -125.099,7.734 -125.099,7.665C-125.099,7.596 -125.043,7.54 -124.974,7.54L-114.974,7.54M-101.974,7.54C-101.904,7.54 -101.849,7.596 -101.849,7.665C-101.849,7.734 -101.904,7.79 -101.974,7.79L-111.974,7.79C-112.043,7.79 -112.099,7.734 -112.099,7.665C-112.099,7.596 -112.043,7.54 -111.974,7.54L-101.974,7.54M-88.974,7.54C-88.904,7.54 -88.849,7.596 -88.849,7.665C-88.849,7.734 -88.904,7.79 -88.974,7.79L-98.974,7.79C-99.043,7.79 -99.099,7.734 -99.099,7.665C-99.099,7.596 -99.043,7.54 -98.974,7.54L-88.974,7.54M-75.974,7.54C-75.904,7.54 -75.849,7.596 -75.849,7.665C-75.849,7.734 -75.904,7.79 -75.974,7.79L-85.974,7.79C-86.043,7.79 -86.099,7.734 -86.099,7.665C-86.099,7.596 -86.043,7.54 -85.974,7.54L-75.974,7.54M-62.974,7.54C-62.904,7.54 -62.849,7.596 -62.849,7.665C-62.849,7.734 -62.904,7.79 -62.974,7.79L-72.974,7.79C-73.043,7.79 -73.099,7.734 -73.099,7.665C-73.099,7.596 -73.043,7.54 -72.974,7.54L-62.974,7.54M-49.974,7.54C-49.904,7.54 -49.849,7.596 -49.849,7.665C-49.849,7.734 -49.904,7.79 -49.974,7.79L-59.974,7.79C-60.043,7.79 -60.099,7.734 -60.099,7.665C-60.099,7.596 -60.043,7.54 -59.974,7.54L-49.974,7.54M-36.974,7.54C-36.904,7.54 -36.849,7.596 -36.849,7.665C-36.849,7.734 -36.904,7.79 -36.974,7.79L-46.974,7.79C-47.043,7.79 -47.099,7.734 -47.099,7.665C-47.099,7.596 -47.043,7.54 -46.974,7.54L-36.974,7.54M-23.974,7.54C-23.904,7.54 -23.849,7.596 -23.849,7.665C-23.849,7.734 -23.904,7.79 -23.974,7.79L-33.974,7.79C-34.043,7.79 -34.099,7.734 -34.099,7.665C-34.099,7.596 -34.043,7.54 -33.974,7.54L-23.974,7.54M-9.552,7.455C-9.483,7.446 -9.421,7.495 -9.413,7.564C-9.404,7.633 -9.453,7.695 -9.522,7.703C-9.998,7.761 -10.482,7.79 -10.974,7.79L-20.974,7.79C-21.043,7.79 -21.099,7.734 -21.099,7.665C-21.099,7.596 -21.043,7.54 -20.974,7.54L-10.974,7.54C-10.499,7.54 -10.021,7.512 -9.552,7.455" style="fill:white;fill-rule:nonzero;"/>
                </g>
                <g id="text3583" transform="matrix(1,0,0,-1,0,0)">
                    <g transform="matrix(1,0,0,1,616.613,-64.2988)">
                        <g transform="matrix(10,0,0,10,73.3813,0)">
                        </g>
                        <text x="-73.381px" y="0px" style="font-family:'LucidaGrande', 'Lucida Grande', sans-serif;font-weight:500;font-size:10px;fill:white;">Services can send and receive,</text>
                    </g>
                    <g transform="matrix(1,0,0,1,616.613,-54.2988)">
                        <g transform="matrix(10,0,0,10,91.9971,0)">
                        </g>
                        <text x="-85.669px" y="0px" style="font-family:'LucidaGrande', 'Lucida Grande', sans-serif;font-weight:500;font-size:10px;fill:white;">messages, implement new server or</text>
                    </g>
                    <g transform="matrix(1,0,0,1,616.613,-44.2988)">
                        <g transform="matrix(10,0,0,10,86.1914,0)">
                        </g>
                        <text x="-86.191px" y="0px" style="font-family:'LucidaGrande', 'Lucida Grande', sans-serif;font-weight:500;font-size:10px;fill:white;">client protocols, implement caches,</text>
                    </g>
                    <g transform="matrix(1,0,0,1,616.613,-34.2988)">
                        <g transform="matrix(10,0,0,10,61.0107,0)">
                        </g>
                        <text x="-61.011px" y="0px" style="font-family:'LucidaGrande', 'Lucida Grande', sans-serif;font-weight:500;font-size:10px;fill:white;">microservices, and more.</text>
                    </g>
                </g>
            </g>
            <g id="g3130" transform="matrix(1,0,0,1,0.832984,33.6)">
                <g id="path490" transform="matrix(1,0,0,1,519.54,43.7793)">
                    <path d="M0,0C0.024,-0.064 0.097,-0.097 0.161,-0.071C0.226,-0.047 0.258,0.025 0.233,0.09C-0.978,3.24 -3.478,5.751 -6.621,6.975C-6.686,7 -6.758,6.968 -6.783,6.903C-6.808,6.839 -6.776,6.767 -6.712,6.741C-3.632,5.543 -1.186,3.085 0,0M0.777,-12.813C0.777,-12.882 0.833,-12.938 0.902,-12.938C0.972,-12.938 1.027,-12.882 1.027,-12.813L1.027,-4.212C1.027,-3.739 1,-3.273 0.947,-2.815C0.939,-2.747 0.877,-2.698 0.809,-2.706C0.74,-2.714 0.69,-2.775 0.698,-2.845C0.751,-3.295 0.777,-3.755 0.777,-4.212L0.777,-12.813M0.777,-25.812C0.776,-25.88 0.833,-25.937 0.901,-25.938C0.971,-25.938 1.027,-25.882 1.027,-25.813L1.027,-15.813C1.027,-15.744 0.972,-15.688 0.902,-15.688C0.833,-15.688 0.777,-15.744 0.777,-15.813L0.777,-25.812M-5.535,-36.153C-5.597,-36.185 -5.62,-36.261 -5.588,-36.321C-5.556,-36.383 -5.48,-36.406 -5.419,-36.375C-2.46,-34.827 -0.226,-32.08 0.638,-28.779C0.655,-28.713 0.615,-28.645 0.548,-28.627C0.481,-28.609 0.413,-28.649 0.396,-28.717C-0.439,-31.908 -2.601,-34.618 -5.535,-36.153M-18.199,-37.484C-18.269,-37.484 -18.324,-37.54 -18.324,-37.609C-18.324,-37.679 -18.269,-37.734 -18.199,-37.734L-10.973,-37.734C-10.026,-37.734 -9.106,-37.625 -8.224,-37.418C-8.156,-37.402 -8.114,-37.335 -8.13,-37.268C-8.146,-37.2 -8.214,-37.159 -8.28,-37.175C-9.157,-37.38 -10.063,-37.484 -10.973,-37.484L-18.199,-37.484M-31.199,-37.484C-31.269,-37.484 -31.324,-37.54 -31.324,-37.609C-31.324,-37.679 -31.269,-37.734 -31.199,-37.734L-21.199,-37.734C-21.131,-37.734 -21.074,-37.679 -21.074,-37.609C-21.074,-37.54 -21.131,-37.484 -21.199,-37.484L-31.199,-37.484M-44.199,-37.484C-44.269,-37.484 -44.324,-37.54 -44.324,-37.609C-44.324,-37.679 -44.269,-37.734 -44.199,-37.734L-34.199,-37.734C-34.13,-37.734 -34.074,-37.679 -34.074,-37.609C-34.074,-37.54 -34.13,-37.484 -34.199,-37.484L-44.199,-37.484M-57.199,-37.484C-57.269,-37.484 -57.324,-37.54 -57.324,-37.609C-57.324,-37.679 -57.269,-37.734 -57.199,-37.734L-47.199,-37.734C-47.13,-37.734 -47.074,-37.679 -47.074,-37.609C-47.074,-37.54 -47.13,-37.484 -47.199,-37.484L-57.199,-37.484M-70.199,-37.484C-70.269,-37.484 -70.324,-37.54 -70.324,-37.609C-70.324,-37.679 -70.269,-37.734 -70.199,-37.734L-60.199,-37.734C-60.13,-37.734 -60.074,-37.679 -60.074,-37.609C-60.074,-37.54 -60.13,-37.484 -60.199,-37.484L-70.199,-37.484M-83.199,-37.484C-83.269,-37.484 -83.324,-37.54 -83.324,-37.609C-83.324,-37.679 -83.269,-37.734 -83.199,-37.734L-73.199,-37.734C-73.13,-37.734 -73.074,-37.679 -73.074,-37.609C-73.074,-37.54 -73.13,-37.484 -73.199,-37.484L-83.199,-37.484M-96.199,-37.484C-96.269,-37.484 -96.324,-37.54 -96.324,-37.609C-96.324,-37.679 -96.269,-37.734 -96.199,-37.734L-86.199,-37.734C-86.131,-37.734 -86.074,-37.679 -86.074,-37.609C-86.074,-37.54 -86.131,-37.484 -86.199,-37.484L-96.199,-37.484M-109.199,-37.484C-109.269,-37.484 -109.324,-37.54 -109.324,-37.609C-109.324,-37.679 -109.269,-37.734 -109.199,-37.734L-99.199,-37.734C-99.131,-37.734 -99.074,-37.679 -99.074,-37.609C-99.074,-37.54 -99.131,-37.484 -99.199,-37.484L-109.199,-37.484M-122.199,-37.484C-122.269,-37.484 -122.324,-37.54 -122.324,-37.609C-122.324,-37.679 -122.269,-37.734 -122.199,-37.734L-112.199,-37.734C-112.131,-37.734 -112.074,-37.679 -112.074,-37.609C-112.074,-37.54 -112.131,-37.484 -112.199,-37.484L-122.199,-37.484M-135.199,-37.484C-135.269,-37.484 -135.324,-37.54 -135.324,-37.609C-135.324,-37.679 -135.269,-37.734 -135.199,-37.734L-125.199,-37.734C-125.131,-37.734 -125.074,-37.679 -125.074,-37.609C-125.074,-37.54 -125.131,-37.484 -125.199,-37.484L-135.199,-37.484M-148.199,-37.484C-148.269,-37.484 -148.324,-37.54 -148.324,-37.609C-148.324,-37.679 -148.269,-37.734 -148.199,-37.734L-138.199,-37.734C-138.131,-37.734 -138.074,-37.679 -138.074,-37.609C-138.074,-37.54 -138.131,-37.484 -138.199,-37.484L-148.199,-37.484M-161.199,-37.484C-161.269,-37.484 -161.324,-37.54 -161.324,-37.609C-161.324,-37.679 -161.269,-37.734 -161.199,-37.734L-151.199,-37.734C-151.131,-37.734 -151.074,-37.679 -151.074,-37.609C-151.074,-37.54 -151.131,-37.484 -151.199,-37.484L-161.199,-37.484M-173.628,-35.419C-173.686,-35.38 -173.763,-35.395 -173.802,-35.451C-173.841,-35.508 -173.827,-35.586 -173.77,-35.625C-171.838,-36.955 -169.497,-37.734 -166.973,-37.734L-164.2,-37.734C-164.13,-37.734 -164.075,-37.679 -164.075,-37.609C-164.075,-37.54 -164.13,-37.484 -164.2,-37.484L-166.973,-37.484C-169.365,-37.484 -171.666,-36.771 -173.628,-35.419M-178.723,-24.359C-178.723,-24.291 -178.779,-24.234 -178.848,-24.234C-178.917,-24.234 -178.973,-24.291 -178.973,-24.359L-178.973,-25.734C-178.973,-28.76 -177.853,-31.524 -176.005,-33.636C-175.96,-33.688 -175.881,-33.692 -175.829,-33.647C-175.777,-33.602 -175.771,-33.522 -175.817,-33.471C-177.691,-31.33 -178.723,-28.582 -178.723,-25.734L-178.723,-24.359M-178.723,-11.359C-178.723,-11.291 -178.779,-11.234 -178.848,-11.234C-178.917,-11.234 -178.973,-11.291 -178.973,-11.359L-178.973,-21.359C-178.973,-21.429 -178.917,-21.484 -178.848,-21.484C-178.779,-21.484 -178.723,-21.429 -178.723,-21.359L-178.723,-11.359M-177.356,1.294C-177.323,1.354 -177.347,1.431 -177.408,1.463C-177.469,1.495 -177.544,1.473 -177.577,1.411C-178.468,-0.266 -178.973,-2.18 -178.973,-4.212L-178.973,-8.359C-178.973,-8.429 -178.917,-8.484 -178.848,-8.484C-178.779,-8.484 -178.723,-8.429 -178.723,-8.359L-178.723,-4.212C-178.723,-2.293 -178.25,-0.389 -177.356,1.294M-166.973,7.538C-166.904,7.538 -166.848,7.594 -166.848,7.663C-166.848,7.732 -166.904,7.788 -166.973,7.788C-170.493,7.788 -173.659,6.272 -175.854,3.858C-175.901,3.807 -175.897,3.728 -175.846,3.682C-175.795,3.635 -175.716,3.639 -175.669,3.69C-173.446,6.136 -170.276,7.538 -166.973,7.538M-153.973,7.538C-153.903,7.538 -153.848,7.594 -153.848,7.663C-153.848,7.732 -153.903,7.788 -153.973,7.788L-163.973,7.788C-164.042,7.788 -164.098,7.732 -164.098,7.663C-164.098,7.594 -164.042,7.538 -163.973,7.538L-153.973,7.538M-140.973,7.538C-140.903,7.538 -140.848,7.594 -140.848,7.663C-140.848,7.732 -140.903,7.788 -140.973,7.788L-150.973,7.788C-151.042,7.788 -151.098,7.732 -151.098,7.663C-151.098,7.594 -151.042,7.538 -150.973,7.538L-140.973,7.538M-127.973,7.538C-127.903,7.538 -127.848,7.594 -127.848,7.663C-127.848,7.732 -127.903,7.788 -127.973,7.788L-137.973,7.788C-138.042,7.788 -138.098,7.732 -138.098,7.663C-138.098,7.594 -138.042,7.538 -137.973,7.538L-127.973,7.538M-114.973,7.538C-114.903,7.538 -114.848,7.594 -114.848,7.663C-114.848,7.732 -114.903,7.788 -114.973,7.788L-124.973,7.788C-125.042,7.788 -125.098,7.732 -125.098,7.663C-125.098,7.594 -125.042,7.538 -124.973,7.538L-114.973,7.538M-101.973,7.538C-101.903,7.538 -101.848,7.594 -101.848,7.663C-101.848,7.732 -101.903,7.788 -101.973,7.788L-111.973,7.788C-112.042,7.788 -112.098,7.732 -112.098,7.663C-112.098,7.594 -112.042,7.538 -111.973,7.538L-101.973,7.538M-88.973,7.538C-88.903,7.538 -88.848,7.594 -88.848,7.663C-88.848,7.732 -88.903,7.788 -88.973,7.788L-98.973,7.788C-99.042,7.788 -99.098,7.732 -99.098,7.663C-99.098,7.594 -99.042,7.538 -98.973,7.538L-88.973,7.538M-75.973,7.538C-75.903,7.538 -75.848,7.594 -75.848,7.663C-75.848,7.732 -75.903,7.788 -75.973,7.788L-85.973,7.788C-86.042,7.788 -86.098,7.732 -86.098,7.663C-86.098,7.594 -86.042,7.538 -85.973,7.538L-75.973,7.538M-62.973,7.538C-62.903,7.538 -62.848,7.594 -62.848,7.663C-62.848,7.732 -62.903,7.788 -62.973,7.788L-72.973,7.788C-73.042,7.788 -73.098,7.732 -73.098,7.663C-73.098,7.594 -73.042,7.538 -72.973,7.538L-62.973,7.538M-49.973,7.538C-49.903,7.538 -49.848,7.594 -49.848,7.663C-49.848,7.732 -49.903,7.788 -49.973,7.788L-59.973,7.788C-60.042,7.788 -60.098,7.732 -60.098,7.663C-60.098,7.594 -60.042,7.538 -59.973,7.538L-49.973,7.538M-36.973,7.538C-36.903,7.538 -36.848,7.594 -36.848,7.663C-36.848,7.732 -36.903,7.788 -36.973,7.788L-46.973,7.788C-47.042,7.788 -47.098,7.732 -47.098,7.663C-47.098,7.594 -47.042,7.538 -46.973,7.538L-36.973,7.538M-23.973,7.538C-23.903,7.538 -23.848,7.594 -23.848,7.663C-23.848,7.732 -23.903,7.788 -23.973,7.788L-33.973,7.788C-34.042,7.788 -34.098,7.732 -34.098,7.663C-34.098,7.594 -34.042,7.538 -33.973,7.538L-23.973,7.538M-9.554,7.453C-9.485,7.445 -9.423,7.494 -9.414,7.563C-9.406,7.631 -9.455,7.693 -9.523,7.701C-9.999,7.759 -10.482,7.788 -10.973,7.788L-20.973,7.788C-21.042,7.788 -21.098,7.732 -21.098,7.663C-21.098,7.594 -21.042,7.538 -20.973,7.538L-10.973,7.538C-10.499,7.538 -10.021,7.51 -9.554,7.453" style="fill:rgb(35,31,32);fill-rule:nonzero;"/>
                </g>
                <g id="text3600" transform="matrix(1,0,0,-1,0,0)">
                    <g transform="matrix(1,0,0,1,430.755,-35.4738)">
                        <g transform="matrix(10,0,0,10,83.2642,0)">
                        </g>
                        <text x="-83.264px" y="0px" style="font-family:'LucidaGrande', 'Lucida Grande', sans-serif;font-weight:500;font-size:10px;fill:white;">Workflows can generate messages</text>
                    </g>
                    <g transform="matrix(1,0,0,1,430.755,-25.4738)">
                        <g transform="matrix(10,0,0,10,83.1079,0)">
                        </g>
                        <text x="-83.108px" y="0px" style="font-family:'LucidaGrande', 'Lucida Grande', sans-serif;font-weight:500;font-size:10px;fill:white;">directly, or use system API calls or</text>
                    </g>
                    <g transform="matrix(1,0,0,1,430.755,-15.4738)">
                        <g transform="matrix(10,0,0,10,41.1182,0)">
                        </g>
                        <text x="-41.118px" y="0px" style="font-family:'LucidaGrande', 'Lucida Grande', sans-serif;font-weight:500;font-size:10px;fill:white;">service methods.</text>
                    </g>
                </g>
            </g>
            <g id="path3353" transform="matrix(0.529674,0,0,0.559306,231.156,308.647)">
                <path d="M0,0L-187.201,0C-193.887,0 -199.327,3.831 -199.327,8.539L-199.327,37.232C-199.327,41.94 -193.887,45.771 -187.201,45.771L0,45.771C6.686,45.771 12.124,41.94 12.124,37.232L12.124,8.539C12.124,3.831 6.686,0 0,0" style="fill:rgb(245,212,61);fill-rule:nonzero;"/>
            </g>
            <g transform="matrix(0.999977,0.00682085,0.00682085,-0.999977,157.112,314.801)">
                <g id="text3355">
                    <g transform="matrix(19.2,0,0,19.2,58.9219,0)">
                    </g>
                    <text x="0px" y="0px" style="font-family:'LucidaGrande', 'Lucida Grande', sans-serif;font-weight:500;font-size:19.2px;fill:rgb(35,31,32);">x-RPC</text>
                </g>
            </g>
            <g id="path3363" transform="matrix(0.529674,0,0,0.559306,468.134,308.647)">
                <path d="M0,0L-187.201,0C-193.887,0 -199.327,3.831 -199.327,8.539L-199.327,37.232C-199.327,41.94 -193.887,45.771 -187.201,45.771L0,45.771C6.686,45.771 12.124,41.94 12.124,37.232L12.124,8.539C12.124,3.831 6.686,0 0,0" style="fill:rgb(245,212,61);fill-rule:nonzero;"/>
            </g>
            <g transform="matrix(0.999977,0.00682085,0.00682085,-0.999977,395.383,314.928)">
                <g id="text3365">
                    <g transform="matrix(19.2,0,0,19.2,49.1156,0)">
                    </g>
                    <text x="0px" y="0px" style="font-family:'LucidaGrande', 'Lucida Grande', sans-serif;font-weight:500;font-size:19.2px;fill:rgb(35,31,32);">SOAP</text>
                </g>
            </g>
            <g id="path3379" transform="matrix(0.529674,0,0,0.559306,349.645,308.647)">
                <path d="M0,0L-187.201,0C-193.887,0 -199.327,3.831 -199.327,8.539L-199.327,37.232C-199.327,41.94 -193.887,45.771 -187.201,45.771L0,45.771C6.686,45.771 12.124,41.94 12.124,37.232L12.124,8.539C12.124,3.831 6.686,0 0,0" style="fill:rgb(245,212,61);fill-rule:nonzero;"/>
            </g>
            <g transform="matrix(0.999977,0.00682085,0.00682085,-0.999977,277.201,314.792)">
                <g id="text3381">
                    <g transform="matrix(19.2,0,0,19.2,45.0281,0)">
                    </g>
                    <text x="0px" y="0px" style="font-family:'LucidaGrande', 'Lucida Grande', sans-serif;font-weight:500;font-size:19.2px;fill:rgb(35,31,32);">REST</text>
                </g>
            </g>
            <g id="path3410" transform="matrix(0.529674,0,0,0.559306,586.622,308.647)">
                <path d="M0,0L-187.201,0C-193.887,0 -199.327,3.831 -199.327,8.539L-199.327,37.232C-199.327,41.94 -193.887,45.771 -187.201,45.771L0,45.771C6.686,45.771 12.124,41.94 12.124,37.232L12.124,8.539C12.124,3.831 6.686,0 0,0" style="fill:rgb(245,212,61);fill-rule:nonzero;"/>
            </g>
            <g transform="matrix(0.999977,0.00682085,0.00682085,-0.999977,486.979,314.8)">
                <g id="text3412">
                    <g transform="matrix(17.6,0,0,17.6,100.891,0)">
                    </g>
                    <text x="0px" y="0px" style="font-family:'LucidaGrande', 'Lucida Grande', sans-serif;font-weight:500;font-size:17.6px;fill:rgb(35,31,32);">WebSockets</text>
                </g>
            </g>
            <g transform="matrix(1,0,0,-1,25.4122,198.09)">
                <g id="text3457">
                    <g transform="matrix(24,0,0,24,49.5469,0)">
                    </g>
                    <text x="0px" y="0px" style="font-family:'LucidaGrande', 'Lucida Grande', sans-serif;font-weight:500;font-size:24px;fill:white;">Jobs</text>
                </g>
            </g>
            <g id="rect4296" transform="matrix(1,0,0,-1,0,0)">
                <path d="M162.586,-217.995C162.586,-221.538 159.71,-224.414 156.167,-224.414L11.495,-224.414C7.952,-224.414 5.076,-221.538 5.076,-217.995L5.076,-186.012C5.076,-182.469 7.952,-179.593 11.495,-179.593L156.167,-179.593C159.71,-179.593 162.586,-182.469 162.586,-186.012L162.586,-217.995Z" style="fill:rgb(250,28,0);"/>
            </g>
            <g transform="matrix(1.00135,0,0,-0.998649,16.6926,194.628)">
                <g id="text4298">
                    <g transform="matrix(24,0,0,24,145.137,0)">
                    </g>
                    <text x="0px" y="0px" style="font-family:'LucidaGrande', 'Lucida Grande', sans-serif;font-weight:500;font-size:24px;fill:white;">Job Manager</text>
                </g>
            </g>
            <g id="rect4302" transform="matrix(1,0,0,-1,0,0)">
                <path d="M161.632,-165.686C161.632,-170.373 157.827,-174.178 153.14,-174.178L13.568,-174.178C8.881,-174.178 5.076,-170.373 5.076,-165.686L5.076,-113.054C5.076,-108.367 8.881,-104.562 13.568,-104.562L153.14,-104.562C157.827,-104.562 161.632,-108.367 161.632,-113.054L161.632,-165.686Z" style="fill:rgb(250,28,0);"/>
            </g>
            <g id="text4304" transform="matrix(1.00135,0,0,-0.998649,0,0)">
                <g transform="matrix(1,0,0,1,82.8269,-146.561)">
                    <g transform="matrix(24,0,0,24,49.1836,0)">
                    </g>
                    <text x="-49.184px" y="0px" style="font-family:'LucidaGrande', 'Lucida Grande', sans-serif;font-weight:500;font-size:24px;fill:white;">Job Data</text>
                </g>
                <g transform="matrix(1,0,0,1,82.8269,-122.561)">
                    <g transform="matrix(24,0,0,24,65.5957,0)">
                    </g>
                    <text x="-65.596px" y="0px" style="font-family:'LucidaGrande', 'Lucida Grande', sans-serif;font-weight:500;font-size:24px;fill:white;">&amp; Metadata</text>
                </g>
            </g>
            <g id="path4348" transform="matrix(0.925075,0,0,1.41476,333.929,89.0912)">
                <path d="M0,0C0.024,-0.064 0.097,-0.097 0.161,-0.072C0.226,-0.047 0.258,0.025 0.233,0.09C-0.977,3.24 -3.477,5.751 -6.62,6.976C-6.684,7.001 -6.757,6.969 -6.781,6.904C-6.807,6.84 -6.774,6.768 -6.71,6.742C-3.631,5.543 -1.185,3.085 0,0M0.776,-12.813C0.776,-12.883 0.832,-12.938 0.901,-12.938C0.971,-12.938 1.026,-12.883 1.026,-12.813L1.026,-4.21C1.026,-3.738 0.999,-3.273 0.946,-2.816C0.938,-2.748 0.876,-2.698 0.808,-2.706C0.739,-2.715 0.689,-2.776 0.698,-2.845C0.75,-3.295 0.776,-3.754 0.776,-4.21L0.776,-12.813M0.776,-25.812C0.775,-25.881 0.831,-25.938 0.9,-25.938C0.97,-25.938 1.025,-25.883 1.026,-25.813L1.026,-15.813C1.026,-15.744 0.971,-15.688 0.901,-15.688C0.832,-15.688 0.776,-15.744 0.776,-15.813L0.776,-25.812M-5.538,-36.153C-5.599,-36.185 -5.622,-36.261 -5.591,-36.321C-5.559,-36.383 -5.483,-36.406 -5.422,-36.374C-2.462,-34.827 -0.228,-32.081 0.636,-28.78C0.653,-28.714 0.613,-28.646 0.547,-28.628C0.48,-28.61 0.412,-28.65 0.395,-28.717C-0.441,-31.908 -2.604,-34.618 -5.538,-36.153M-18.202,-37.483C-18.271,-37.483 -18.327,-37.539 -18.327,-37.608C-18.327,-37.678 -18.271,-37.733 -18.202,-37.733L-10.974,-37.733C-10.028,-37.733 -9.108,-37.624 -8.227,-37.417C-8.159,-37.401 -8.117,-37.334 -8.133,-37.268C-8.148,-37.2 -8.216,-37.158 -8.283,-37.174C-9.159,-37.379 -10.064,-37.483 -10.974,-37.483L-18.202,-37.483M-31.202,-37.483C-31.271,-37.483 -31.327,-37.539 -31.327,-37.608C-31.327,-37.678 -31.271,-37.733 -31.202,-37.733L-21.202,-37.733C-21.133,-37.733 -21.077,-37.678 -21.077,-37.608C-21.077,-37.539 -21.133,-37.483 -21.202,-37.483L-31.202,-37.483M-44.202,-37.483C-44.271,-37.483 -44.327,-37.539 -44.327,-37.608C-44.327,-37.678 -44.271,-37.733 -44.202,-37.733L-34.202,-37.733C-34.133,-37.733 -34.077,-37.678 -34.077,-37.608C-34.077,-37.539 -34.133,-37.483 -34.202,-37.483L-44.202,-37.483M-57.202,-37.483C-57.271,-37.483 -57.327,-37.539 -57.327,-37.608C-57.327,-37.678 -57.271,-37.733 -57.202,-37.733L-47.202,-37.733C-47.133,-37.733 -47.077,-37.678 -47.077,-37.608C-47.077,-37.539 -47.133,-37.483 -47.202,-37.483L-57.202,-37.483M-70.202,-37.483C-70.271,-37.483 -70.327,-37.539 -70.327,-37.608C-70.327,-37.678 -70.271,-37.733 -70.202,-37.733L-60.202,-37.733C-60.133,-37.733 -60.077,-37.678 -60.077,-37.608C-60.077,-37.539 -60.133,-37.483 -60.202,-37.483L-70.202,-37.483M-83.202,-37.483C-83.271,-37.483 -83.327,-37.539 -83.327,-37.608C-83.327,-37.678 -83.271,-37.733 -83.202,-37.733L-73.202,-37.733C-73.133,-37.733 -73.077,-37.678 -73.077,-37.608C-73.077,-37.539 -73.133,-37.483 -73.202,-37.483L-83.202,-37.483M-96.202,-37.483C-96.271,-37.483 -96.327,-37.539 -96.327,-37.608C-96.327,-37.678 -96.271,-37.733 -96.202,-37.733L-86.202,-37.733C-86.133,-37.733 -86.077,-37.678 -86.077,-37.608C-86.077,-37.539 -86.133,-37.483 -86.202,-37.483L-96.202,-37.483M-109.202,-37.483C-109.271,-37.483 -109.327,-37.539 -109.327,-37.608C-109.327,-37.678 -109.271,-37.733 -109.202,-37.733L-99.202,-37.733C-99.133,-37.733 -99.077,-37.678 -99.077,-37.608C-99.077,-37.539 -99.133,-37.483 -99.202,-37.483L-109.202,-37.483M-122.202,-37.483C-122.271,-37.483 -122.327,-37.539 -122.327,-37.608C-122.327,-37.678 -122.271,-37.733 -122.202,-37.733L-112.202,-37.733C-112.133,-37.733 -112.077,-37.678 -112.077,-37.608C-112.077,-37.539 -112.133,-37.483 -112.202,-37.483L-122.202,-37.483M-135.202,-37.483C-135.271,-37.483 -135.327,-37.539 -135.327,-37.608C-135.327,-37.678 -135.271,-37.733 -135.202,-37.733L-125.202,-37.733C-125.133,-37.733 -125.077,-37.678 -125.077,-37.608C-125.077,-37.539 -125.133,-37.483 -125.202,-37.483L-135.202,-37.483M-148.202,-37.483C-148.271,-37.483 -148.327,-37.539 -148.327,-37.608C-148.327,-37.678 -148.271,-37.733 -148.202,-37.733L-138.202,-37.733C-138.133,-37.733 -138.077,-37.678 -138.077,-37.608C-138.077,-37.539 -138.133,-37.483 -138.202,-37.483L-148.202,-37.483M-161.202,-37.483C-161.271,-37.483 -161.327,-37.539 -161.327,-37.608C-161.327,-37.678 -161.271,-37.733 -161.202,-37.733L-151.202,-37.733C-151.133,-37.733 -151.077,-37.678 -151.077,-37.608C-151.077,-37.539 -151.133,-37.483 -151.202,-37.483L-161.202,-37.483M-173.631,-35.417C-173.688,-35.378 -173.766,-35.393 -173.805,-35.449C-173.844,-35.506 -173.829,-35.584 -173.772,-35.623C-171.84,-36.954 -169.498,-37.733 -166.975,-37.733L-164.202,-37.733C-164.133,-37.733 -164.077,-37.678 -164.077,-37.608C-164.077,-37.539 -164.133,-37.483 -164.202,-37.483L-166.975,-37.483C-169.366,-37.483 -171.668,-36.769 -173.631,-35.417M-178.725,-24.357C-178.725,-24.288 -178.78,-24.232 -178.85,-24.232C-178.919,-24.232 -178.975,-24.288 -178.975,-24.357L-178.975,-25.733C-178.975,-28.759 -177.854,-31.522 -176.008,-33.633C-175.962,-33.686 -175.883,-33.69 -175.831,-33.645C-175.779,-33.6 -175.774,-33.521 -175.819,-33.469C-177.692,-31.328 -178.725,-28.581 -178.725,-25.733L-178.725,-24.357M-178.725,-11.357C-178.725,-11.288 -178.78,-11.232 -178.85,-11.232C-178.919,-11.232 -178.975,-11.288 -178.975,-11.357L-178.975,-21.357C-178.975,-21.427 -178.919,-21.482 -178.85,-21.482C-178.78,-21.482 -178.725,-21.427 -178.725,-21.357L-178.725,-11.357M-177.357,1.296C-177.325,1.357 -177.348,1.433 -177.409,1.466C-177.47,1.498 -177.546,1.475 -177.578,1.413C-178.47,-0.264 -178.975,-2.178 -178.975,-4.21L-178.975,-8.357C-178.975,-8.427 -178.919,-8.482 -178.85,-8.482C-178.78,-8.482 -178.725,-8.427 -178.725,-8.357L-178.725,-4.21C-178.725,-2.291 -178.252,-0.387 -177.357,1.296M-166.974,7.54C-166.904,7.54 -166.849,7.596 -166.849,7.665C-166.849,7.734 -166.904,7.79 -166.974,7.79C-170.494,7.79 -173.66,6.274 -175.855,3.86C-175.901,3.81 -175.898,3.73 -175.847,3.684C-175.796,3.638 -175.717,3.642 -175.67,3.692C-173.446,6.138 -170.277,7.54 -166.974,7.54M-153.974,7.54C-153.904,7.54 -153.849,7.596 -153.849,7.665C-153.849,7.734 -153.904,7.79 -153.974,7.79L-163.974,7.79C-164.043,7.79 -164.099,7.734 -164.099,7.665C-164.099,7.596 -164.043,7.54 -163.974,7.54L-153.974,7.54M-140.974,7.54C-140.904,7.54 -140.849,7.596 -140.849,7.665C-140.849,7.734 -140.904,7.79 -140.974,7.79L-150.974,7.79C-151.043,7.79 -151.099,7.734 -151.099,7.665C-151.099,7.596 -151.043,7.54 -150.974,7.54L-140.974,7.54M-127.974,7.54C-127.904,7.54 -127.849,7.596 -127.849,7.665C-127.849,7.734 -127.904,7.79 -127.974,7.79L-137.974,7.79C-138.043,7.79 -138.099,7.734 -138.099,7.665C-138.099,7.596 -138.043,7.54 -137.974,7.54L-127.974,7.54M-114.974,7.54C-114.904,7.54 -114.849,7.596 -114.849,7.665C-114.849,7.734 -114.904,7.79 -114.974,7.79L-124.974,7.79C-125.043,7.79 -125.099,7.734 -125.099,7.665C-125.099,7.596 -125.043,7.54 -124.974,7.54L-114.974,7.54M-101.974,7.54C-101.904,7.54 -101.849,7.596 -101.849,7.665C-101.849,7.734 -101.904,7.79 -101.974,7.79L-111.974,7.79C-112.043,7.79 -112.099,7.734 -112.099,7.665C-112.099,7.596 -112.043,7.54 -111.974,7.54L-101.974,7.54M-88.974,7.54C-88.904,7.54 -88.849,7.596 -88.849,7.665C-88.849,7.734 -88.904,7.79 -88.974,7.79L-98.974,7.79C-99.043,7.79 -99.099,7.734 -99.099,7.665C-99.099,7.596 -99.043,7.54 -98.974,7.54L-88.974,7.54M-75.974,7.54C-75.904,7.54 -75.849,7.596 -75.849,7.665C-75.849,7.734 -75.904,7.79 -75.974,7.79L-85.974,7.79C-86.043,7.79 -86.099,7.734 -86.099,7.665C-86.099,7.596 -86.043,7.54 -85.974,7.54L-75.974,7.54M-62.974,7.54C-62.904,7.54 -62.849,7.596 -62.849,7.665C-62.849,7.734 -62.904,7.79 -62.974,7.79L-72.974,7.79C-73.043,7.79 -73.099,7.734 -73.099,7.665C-73.099,7.596 -73.043,7.54 -72.974,7.54L-62.974,7.54M-49.974,7.54C-49.904,7.54 -49.849,7.596 -49.849,7.665C-49.849,7.734 -49.904,7.79 -49.974,7.79L-59.974,7.79C-60.043,7.79 -60.099,7.734 -60.099,7.665C-60.099,7.596 -60.043,7.54 -59.974,7.54L-49.974,7.54M-36.974,7.54C-36.904,7.54 -36.849,7.596 -36.849,7.665C-36.849,7.734 -36.904,7.79 -36.974,7.79L-46.974,7.79C-47.043,7.79 -47.099,7.734 -47.099,7.665C-47.099,7.596 -47.043,7.54 -46.974,7.54L-36.974,7.54M-23.974,7.54C-23.904,7.54 -23.849,7.596 -23.849,7.665C-23.849,7.734 -23.904,7.79 -23.974,7.79L-33.974,7.79C-34.043,7.79 -34.099,7.734 -34.099,7.665C-34.099,7.596 -34.043,7.54 -33.974,7.54L-23.974,7.54M-9.552,7.455C-9.483,7.446 -9.421,7.495 -9.413,7.564C-9.404,7.633 -9.453,7.695 -9.522,7.703C-9.998,7.761 -10.482,7.79 -10.974,7.79L-20.974,7.79C-21.043,7.79 -21.099,7.734 -21.099,7.665C-21.099,7.596 -21.043,7.54 -20.974,7.54L-10.974,7.54C-10.499,7.54 -10.021,7.512 -9.552,7.455" style="fill:rgb(35,31,32);fill-rule:nonzero;"/>
            </g>
            <g id="path4366" transform="matrix(0.925075,0,0,1.41476,333.929,89.0912)">
                <path d="M0,0C0.024,-0.064 0.097,-0.097 0.161,-0.072C0.226,-0.047 0.258,0.025 0.233,0.09C-0.977,3.24 -3.477,5.751 -6.62,6.976C-6.684,7.001 -6.757,6.969 -6.781,6.904C-6.807,6.84 -6.774,6.768 -6.71,6.742C-3.631,5.543 -1.185,3.085 0,0M0.776,-12.813C0.776,-12.883 0.832,-12.938 0.901,-12.938C0.971,-12.938 1.026,-12.883 1.026,-12.813L1.026,-4.21C1.026,-3.738 0.999,-3.273 0.946,-2.816C0.938,-2.748 0.876,-2.698 0.808,-2.706C0.739,-2.715 0.689,-2.776 0.698,-2.845C0.75,-3.295 0.776,-3.754 0.776,-4.21L0.776,-12.813M0.776,-25.812C0.775,-25.881 0.831,-25.938 0.9,-25.938C0.97,-25.938 1.025,-25.883 1.026,-25.813L1.026,-15.813C1.026,-15.744 0.971,-15.688 0.901,-15.688C0.832,-15.688 0.776,-15.744 0.776,-15.813L0.776,-25.812M-5.538,-36.153C-5.599,-36.185 -5.622,-36.261 -5.591,-36.321C-5.559,-36.383 -5.483,-36.406 -5.422,-36.374C-2.462,-34.827 -0.228,-32.081 0.636,-28.78C0.653,-28.714 0.613,-28.646 0.547,-28.628C0.48,-28.61 0.412,-28.65 0.395,-28.717C-0.441,-31.908 -2.604,-34.618 -5.538,-36.153M-18.202,-37.483C-18.271,-37.483 -18.327,-37.539 -18.327,-37.608C-18.327,-37.678 -18.271,-37.733 -18.202,-37.733L-10.974,-37.733C-10.028,-37.733 -9.108,-37.624 -8.227,-37.417C-8.159,-37.401 -8.117,-37.334 -8.133,-37.268C-8.148,-37.2 -8.216,-37.158 -8.283,-37.174C-9.159,-37.379 -10.064,-37.483 -10.974,-37.483L-18.202,-37.483M-31.202,-37.483C-31.271,-37.483 -31.327,-37.539 -31.327,-37.608C-31.327,-37.678 -31.271,-37.733 -31.202,-37.733L-21.202,-37.733C-21.133,-37.733 -21.077,-37.678 -21.077,-37.608C-21.077,-37.539 -21.133,-37.483 -21.202,-37.483L-31.202,-37.483M-44.202,-37.483C-44.271,-37.483 -44.327,-37.539 -44.327,-37.608C-44.327,-37.678 -44.271,-37.733 -44.202,-37.733L-34.202,-37.733C-34.133,-37.733 -34.077,-37.678 -34.077,-37.608C-34.077,-37.539 -34.133,-37.483 -34.202,-37.483L-44.202,-37.483M-57.202,-37.483C-57.271,-37.483 -57.327,-37.539 -57.327,-37.608C-57.327,-37.678 -57.271,-37.733 -57.202,-37.733L-47.202,-37.733C-47.133,-37.733 -47.077,-37.678 -47.077,-37.608C-47.077,-37.539 -47.133,-37.483 -47.202,-37.483L-57.202,-37.483M-70.202,-37.483C-70.271,-37.483 -70.327,-37.539 -70.327,-37.608C-70.327,-37.678 -70.271,-37.733 -70.202,-37.733L-60.202,-37.733C-60.133,-37.733 -60.077,-37.678 -60.077,-37.608C-60.077,-37.539 -60.133,-37.483 -60.202,-37.483L-70.202,-37.483M-83.202,-37.483C-83.271,-37.483 -83.327,-37.539 -83.327,-37.608C-83.327,-37.678 -83.271,-37.733 -83.202,-37.733L-73.202,-37.733C-73.133,-37.733 -73.077,-37.678 -73.077,-37.608C-73.077,-37.539 -73.133,-37.483 -73.202,-37.483L-83.202,-37.483M-96.202,-37.483C-96.271,-37.483 -96.327,-37.539 -96.327,-37.608C-96.327,-37.678 -96.271,-37.733 -96.202,-37.733L-86.202,-37.733C-86.133,-37.733 -86.077,-37.678 -86.077,-37.608C-86.077,-37.539 -86.133,-37.483 -86.202,-37.483L-96.202,-37.483M-109.202,-37.483C-109.271,-37.483 -109.327,-37.539 -109.327,-37.608C-109.327,-37.678 -109.271,-37.733 -109.202,-37.733L-99.202,-37.733C-99.133,-37.733 -99.077,-37.678 -99.077,-37.608C-99.077,-37.539 -99.133,-37.483 -99.202,-37.483L-109.202,-37.483M-122.202,-37.483C-122.271,-37.483 -122.327,-37.539 -122.327,-37.608C-122.327,-37.678 -122.271,-37.733 -122.202,-37.733L-112.202,-37.733C-112.133,-37.733 -112.077,-37.678 -112.077,-37.608C-112.077,-37.539 -112.133,-37.483 -112.202,-37.483L-122.202,-37.483M-135.202,-37.483C-135.271,-37.483 -135.327,-37.539 -135.327,-37.608C-135.327,-37.678 -135.271,-37.733 -135.202,-37.733L-125.202,-37.733C-125.133,-37.733 -125.077,-37.678 -125.077,-37.608C-125.077,-37.539 -125.133,-37.483 -125.202,-37.483L-135.202,-37.483M-148.202,-37.483C-148.271,-37.483 -148.327,-37.539 -148.327,-37.608C-148.327,-37.678 -148.271,-37.733 -148.202,-37.733L-138.202,-37.733C-138.133,-37.733 -138.077,-37.678 -138.077,-37.608C-138.077,-37.539 -138.133,-37.483 -138.202,-37.483L-148.202,-37.483M-161.202,-37.483C-161.271,-37.483 -161.327,-37.539 -161.327,-37.608C-161.327,-37.678 -161.271,-37.733 -161.202,-37.733L-151.202,-37.733C-151.133,-37.733 -151.077,-37.678 -151.077,-37.608C-151.077,-37.539 -151.133,-37.483 -151.202,-37.483L-161.202,-37.483M-173.631,-35.417C-173.688,-35.378 -173.766,-35.393 -173.805,-35.449C-173.844,-35.506 -173.829,-35.584 -173.772,-35.623C-171.84,-36.954 -169.498,-37.733 -166.975,-37.733L-164.202,-37.733C-164.133,-37.733 -164.077,-37.678 -164.077,-37.608C-164.077,-37.539 -164.133,-37.483 -164.202,-37.483L-166.975,-37.483C-169.366,-37.483 -171.668,-36.769 -173.631,-35.417M-178.725,-24.357C-178.725,-24.288 -178.78,-24.232 -178.85,-24.232C-178.919,-24.232 -178.975,-24.288 -178.975,-24.357L-178.975,-25.733C-178.975,-28.759 -177.854,-31.522 -176.008,-33.633C-175.962,-33.686 -175.883,-33.69 -175.831,-33.645C-175.779,-33.6 -175.774,-33.521 -175.819,-33.469C-177.692,-31.328 -178.725,-28.581 -178.725,-25.733L-178.725,-24.357M-178.725,-11.357C-178.725,-11.288 -178.78,-11.232 -178.85,-11.232C-178.919,-11.232 -178.975,-11.288 -178.975,-11.357L-178.975,-21.357C-178.975,-21.427 -178.919,-21.482 -178.85,-21.482C-178.78,-21.482 -178.725,-21.427 -178.725,-21.357L-178.725,-11.357M-177.357,1.296C-177.325,1.357 -177.348,1.433 -177.409,1.466C-177.47,1.498 -177.546,1.475 -177.578,1.413C-178.47,-0.264 -178.975,-2.178 -178.975,-4.21L-178.975,-8.357C-178.975,-8.427 -178.919,-8.482 -178.85,-8.482C-178.78,-8.482 -178.725,-8.427 -178.725,-8.357L-178.725,-4.21C-178.725,-2.291 -178.252,-0.387 -177.357,1.296M-166.974,7.54C-166.904,7.54 -166.849,7.596 -166.849,7.665C-166.849,7.734 -166.904,7.79 -166.974,7.79C-170.494,7.79 -173.66,6.274 -175.855,3.86C-175.901,3.81 -175.898,3.73 -175.847,3.684C-175.796,3.638 -175.717,3.642 -175.67,3.692C-173.446,6.138 -170.277,7.54 -166.974,7.54M-153.974,7.54C-153.904,7.54 -153.849,7.596 -153.849,7.665C-153.849,7.734 -153.904,7.79 -153.974,7.79L-163.974,7.79C-164.043,7.79 -164.099,7.734 -164.099,7.665C-164.099,7.596 -164.043,7.54 -163.974,7.54L-153.974,7.54M-140.974,7.54C-140.904,7.54 -140.849,7.596 -140.849,7.665C-140.849,7.734 -140.904,7.79 -140.974,7.79L-150.974,7.79C-151.043,7.79 -151.099,7.734 -151.099,7.665C-151.099,7.596 -151.043,7.54 -150.974,7.54L-140.974,7.54M-127.974,7.54C-127.904,7.54 -127.849,7.596 -127.849,7.665C-127.849,7.734 -127.904,7.79 -127.974,7.79L-137.974,7.79C-138.043,7.79 -138.099,7.734 -138.099,7.665C-138.099,7.596 -138.043,7.54 -137.974,7.54L-127.974,7.54M-114.974,7.54C-114.904,7.54 -114.849,7.596 -114.849,7.665C-114.849,7.734 -114.904,7.79 -114.974,7.79L-124.974,7.79C-125.043,7.79 -125.099,7.734 -125.099,7.665C-125.099,7.596 -125.043,7.54 -124.974,7.54L-114.974,7.54M-101.974,7.54C-101.904,7.54 -101.849,7.596 -101.849,7.665C-101.849,7.734 -101.904,7.79 -101.974,7.79L-111.974,7.79C-112.043,7.79 -112.099,7.734 -112.099,7.665C-112.099,7.596 -112.043,7.54 -111.974,7.54L-101.974,7.54M-88.974,7.54C-88.904,7.54 -88.849,7.596 -88.849,7.665C-88.849,7.734 -88.904,7.79 -88.974,7.79L-98.974,7.79C-99.043,7.79 -99.099,7.734 -99.099,7.665C-99.099,7.596 -99.043,7.54 -98.974,7.54L-88.974,7.54M-75.974,7.54C-75.904,7.54 -75.849,7.596 -75.849,7.665C-75.849,7.734 -75.904,7.79 -75.974,7.79L-85.974,7.79C-86.043,7.79 -86.099,7.734 -86.099,7.665C-86.099,7.596 -86.043,7.54 -85.974,7.54L-75.974,7.54M-62.974,7.54C-62.904,7.54 -62.849,7.596 -62.849,7.665C-62.849,7.734 -62.904,7.79 -62.974,7.79L-72.974,7.79C-73.043,7.79 -73.099,7.734 -73.099,7.665C-73.099,7.596 -73.043,7.54 -72.974,7.54L-62.974,7.54M-49.974,7.54C-49.904,7.54 -49.849,7.596 -49.849,7.665C-49.849,7.734 -49.904,7.79 -49.974,7.79L-59.974,7.79C-60.043,7.79 -60.099,7.734 -60.099,7.665C-60.099,7.596 -60.043,7.54 -59.974,7.54L-49.974,7.54M-36.974,7.54C-36.904,7.54 -36.849,7.596 -36.849,7.665C-36.849,7.734 -36.904,7.79 -36.974,7.79L-46.974,7.79C-47.043,7.79 -47.099,7.734 -47.099,7.665C-47.099,7.596 -47.043,7.54 -46.974,7.54L-36.974,7.54M-23.974,7.54C-23.904,7.54 -23.849,7.596 -23.849,7.665C-23.849,7.734 -23.904,7.79 -23.974,7.79L-33.974,7.79C-34.043,7.79 -34.099,7.734 -34.099,7.665C-34.099,7.596 -34.043,7.54 -33.974,7.54L-23.974,7.54M-9.552,7.455C-9.483,7.446 -9.421,7.495 -9.413,7.564C-9.404,7.633 -9.453,7.695 -9.522,7.703C-9.998,7.761 -10.482,7.79 -10.974,7.79L-20.974,7.79C-21.043,7.79 -21.099,7.734 -21.099,7.665C-21.099,7.596 -21.043,7.54 -20.974,7.54L-10.974,7.54C-10.499,7.54 -10.021,7.512 -9.552,7.455" style="fill:rgb(35,31,32);fill-rule:nonzero;"/>
            </g>
            <g id="path4370" transform="matrix(0.857642,1.82241e-17,1.49539e-17,0.825849,160.695,93.6788)">
                <path d="M0,0C0.024,-0.064 0.097,-0.097 0.161,-0.072C0.226,-0.047 0.258,0.025 0.233,0.09C-0.977,3.24 -3.477,5.751 -6.62,6.976C-6.684,7.001 -6.757,6.969 -6.781,6.904C-6.807,6.84 -6.774,6.768 -6.71,6.742C-3.631,5.543 -1.185,3.085 0,0M0.776,-12.813C0.776,-12.883 0.832,-12.938 0.901,-12.938C0.971,-12.938 1.026,-12.883 1.026,-12.813L1.026,-4.21C1.026,-3.738 0.999,-3.273 0.946,-2.816C0.938,-2.748 0.876,-2.698 0.808,-2.706C0.739,-2.715 0.689,-2.776 0.698,-2.845C0.75,-3.295 0.776,-3.754 0.776,-4.21L0.776,-12.813M0.776,-25.812C0.775,-25.881 0.831,-25.938 0.9,-25.938C0.97,-25.938 1.025,-25.883 1.026,-25.813L1.026,-15.813C1.026,-15.744 0.971,-15.688 0.901,-15.688C0.832,-15.688 0.776,-15.744 0.776,-15.813L0.776,-25.812M-5.538,-36.153C-5.599,-36.185 -5.622,-36.261 -5.591,-36.321C-5.559,-36.383 -5.483,-36.406 -5.422,-36.374C-2.462,-34.827 -0.228,-32.081 0.636,-28.78C0.653,-28.714 0.613,-28.646 0.547,-28.628C0.48,-28.61 0.412,-28.65 0.395,-28.717C-0.441,-31.908 -2.604,-34.618 -5.538,-36.153M-18.202,-37.483C-18.271,-37.483 -18.327,-37.539 -18.327,-37.608C-18.327,-37.678 -18.271,-37.733 -18.202,-37.733L-10.974,-37.733C-10.028,-37.733 -9.108,-37.624 -8.227,-37.417C-8.159,-37.401 -8.117,-37.334 -8.133,-37.268C-8.148,-37.2 -8.216,-37.158 -8.283,-37.174C-9.159,-37.379 -10.064,-37.483 -10.974,-37.483L-18.202,-37.483M-31.202,-37.483C-31.271,-37.483 -31.327,-37.539 -31.327,-37.608C-31.327,-37.678 -31.271,-37.733 -31.202,-37.733L-21.202,-37.733C-21.133,-37.733 -21.077,-37.678 -21.077,-37.608C-21.077,-37.539 -21.133,-37.483 -21.202,-37.483L-31.202,-37.483M-44.202,-37.483C-44.271,-37.483 -44.327,-37.539 -44.327,-37.608C-44.327,-37.678 -44.271,-37.733 -44.202,-37.733L-34.202,-37.733C-34.133,-37.733 -34.077,-37.678 -34.077,-37.608C-34.077,-37.539 -34.133,-37.483 -34.202,-37.483L-44.202,-37.483M-57.202,-37.483C-57.271,-37.483 -57.327,-37.539 -57.327,-37.608C-57.327,-37.678 -57.271,-37.733 -57.202,-37.733L-47.202,-37.733C-47.133,-37.733 -47.077,-37.678 -47.077,-37.608C-47.077,-37.539 -47.133,-37.483 -47.202,-37.483L-57.202,-37.483M-70.202,-37.483C-70.271,-37.483 -70.327,-37.539 -70.327,-37.608C-70.327,-37.678 -70.271,-37.733 -70.202,-37.733L-60.202,-37.733C-60.133,-37.733 -60.077,-37.678 -60.077,-37.608C-60.077,-37.539 -60.133,-37.483 -60.202,-37.483L-70.202,-37.483M-83.202,-37.483C-83.271,-37.483 -83.327,-37.539 -83.327,-37.608C-83.327,-37.678 -83.271,-37.733 -83.202,-37.733L-73.202,-37.733C-73.133,-37.733 -73.077,-37.678 -73.077,-37.608C-73.077,-37.539 -73.133,-37.483 -73.202,-37.483L-83.202,-37.483M-96.202,-37.483C-96.271,-37.483 -96.327,-37.539 -96.327,-37.608C-96.327,-37.678 -96.271,-37.733 -96.202,-37.733L-86.202,-37.733C-86.133,-37.733 -86.077,-37.678 -86.077,-37.608C-86.077,-37.539 -86.133,-37.483 -86.202,-37.483L-96.202,-37.483M-109.202,-37.483C-109.271,-37.483 -109.327,-37.539 -109.327,-37.608C-109.327,-37.678 -109.271,-37.733 -109.202,-37.733L-99.202,-37.733C-99.133,-37.733 -99.077,-37.678 -99.077,-37.608C-99.077,-37.539 -99.133,-37.483 -99.202,-37.483L-109.202,-37.483M-122.202,-37.483C-122.271,-37.483 -122.327,-37.539 -122.327,-37.608C-122.327,-37.678 -122.271,-37.733 -122.202,-37.733L-112.202,-37.733C-112.133,-37.733 -112.077,-37.678 -112.077,-37.608C-112.077,-37.539 -112.133,-37.483 -112.202,-37.483L-122.202,-37.483M-135.202,-37.483C-135.271,-37.483 -135.327,-37.539 -135.327,-37.608C-135.327,-37.678 -135.271,-37.733 -135.202,-37.733L-125.202,-37.733C-125.133,-37.733 -125.077,-37.678 -125.077,-37.608C-125.077,-37.539 -125.133,-37.483 -125.202,-37.483L-135.202,-37.483M-148.202,-37.483C-148.271,-37.483 -148.327,-37.539 -148.327,-37.608C-148.327,-37.678 -148.271,-37.733 -148.202,-37.733L-138.202,-37.733C-138.133,-37.733 -138.077,-37.678 -138.077,-37.608C-138.077,-37.539 -138.133,-37.483 -138.202,-37.483L-148.202,-37.483M-161.202,-37.483C-161.271,-37.483 -161.327,-37.539 -161.327,-37.608C-161.327,-37.678 -161.271,-37.733 -161.202,-37.733L-151.202,-37.733C-151.133,-37.733 -151.077,-37.678 -151.077,-37.608C-151.077,-37.539 -151.133,-37.483 -151.202,-37.483L-161.202,-37.483M-173.631,-35.417C-173.688,-35.378 -173.766,-35.393 -173.805,-35.449C-173.844,-35.506 -173.829,-35.584 -173.772,-35.623C-171.84,-36.954 -169.498,-37.733 -166.975,-37.733L-164.202,-37.733C-164.133,-37.733 -164.077,-37.678 -164.077,-37.608C-164.077,-37.539 -164.133,-37.483 -164.202,-37.483L-166.975,-37.483C-169.366,-37.483 -171.668,-36.769 -173.631,-35.417M-178.725,-24.357C-178.725,-24.288 -178.78,-24.232 -178.85,-24.232C-178.919,-24.232 -178.975,-24.288 -178.975,-24.357L-178.975,-25.733C-178.975,-28.759 -177.854,-31.522 -176.008,-33.633C-175.962,-33.686 -175.883,-33.69 -175.831,-33.645C-175.779,-33.6 -175.774,-33.521 -175.819,-33.469C-177.692,-31.328 -178.725,-28.581 -178.725,-25.733L-178.725,-24.357M-178.725,-11.357C-178.725,-11.288 -178.78,-11.232 -178.85,-11.232C-178.919,-11.232 -178.975,-11.288 -178.975,-11.357L-178.975,-21.357C-178.975,-21.427 -178.919,-21.482 -178.85,-21.482C-178.78,-21.482 -178.725,-21.427 -178.725,-21.357L-178.725,-11.357M-177.357,1.296C-177.325,1.357 -177.348,1.433 -177.409,1.466C-177.47,1.498 -177.546,1.475 -177.578,1.413C-178.47,-0.264 -178.975,-2.178 -178.975,-4.21L-178.975,-8.357C-178.975,-8.427 -178.919,-8.482 -178.85,-8.482C-178.78,-8.482 -178.725,-8.427 -178.725,-8.357L-178.725,-4.21C-178.725,-2.291 -178.252,-0.387 -177.357,1.296M-166.974,7.54C-166.904,7.54 -166.849,7.596 -166.849,7.665C-166.849,7.734 -166.904,7.79 -166.974,7.79C-170.494,7.79 -173.66,6.274 -175.855,3.86C-175.901,3.81 -175.898,3.73 -175.847,3.684C-175.796,3.638 -175.717,3.642 -175.67,3.692C-173.446,6.138 -170.277,7.54 -166.974,7.54M-153.974,7.54C-153.904,7.54 -153.849,7.596 -153.849,7.665C-153.849,7.734 -153.904,7.79 -153.974,7.79L-163.974,7.79C-164.043,7.79 -164.099,7.734 -164.099,7.665C-164.099,7.596 -164.043,7.54 -163.974,7.54L-153.974,7.54M-140.974,7.54C-140.904,7.54 -140.849,7.596 -140.849,7.665C-140.849,7.734 -140.904,7.79 -140.974,7.79L-150.974,7.79C-151.043,7.79 -151.099,7.734 -151.099,7.665C-151.099,7.596 -151.043,7.54 -150.974,7.54L-140.974,7.54M-127.974,7.54C-127.904,7.54 -127.849,7.596 -127.849,7.665C-127.849,7.734 -127.904,7.79 -127.974,7.79L-137.974,7.79C-138.043,7.79 -138.099,7.734 -138.099,7.665C-138.099,7.596 -138.043,7.54 -137.974,7.54L-127.974,7.54M-114.974,7.54C-114.904,7.54 -114.849,7.596 -114.849,7.665C-114.849,7.734 -114.904,7.79 -114.974,7.79L-124.974,7.79C-125.043,7.79 -125.099,7.734 -125.099,7.665C-125.099,7.596 -125.043,7.54 -124.974,7.54L-114.974,7.54M-101.974,7.54C-101.904,7.54 -101.849,7.596 -101.849,7.665C-101.849,7.734 -101.904,7.79 -101.974,7.79L-111.974,7.79C-112.043,7.79 -112.099,7.734 -112.099,7.665C-112.099,7.596 -112.043,7.54 -111.974,7.54L-101.974,7.54M-88.974,7.54C-88.904,7.54 -88.849,7.596 -88.849,7.665C-88.849,7.734 -88.904,7.79 -88.974,7.79L-98.974,7.79C-99.043,7.79 -99.099,7.734 -99.099,7.665C-99.099,7.596 -99.043,7.54 -98.974,7.54L-88.974,7.54M-75.974,7.54C-75.904,7.54 -75.849,7.596 -75.849,7.665C-75.849,7.734 -75.904,7.79 -75.974,7.79L-85.974,7.79C-86.043,7.79 -86.099,7.734 -86.099,7.665C-86.099,7.596 -86.043,7.54 -85.974,7.54L-75.974,7.54M-62.974,7.54C-62.904,7.54 -62.849,7.596 -62.849,7.665C-62.849,7.734 -62.904,7.79 -62.974,7.79L-72.974,7.79C-73.043,7.79 -73.099,7.734 -73.099,7.665C-73.099,7.596 -73.043,7.54 -72.974,7.54L-62.974,7.54M-49.974,7.54C-49.904,7.54 -49.849,7.596 -49.849,7.665C-49.849,7.734 -49.904,7.79 -49.974,7.79L-59.974,7.79C-60.043,7.79 -60.099,7.734 -60.099,7.665C-60.099,7.596 -60.043,7.54 -59.974,7.54L-49.974,7.54M-36.974,7.54C-36.904,7.54 -36.849,7.596 -36.849,7.665C-36.849,7.734 -36.904,7.79 -36.974,7.79L-46.974,7.79C-47.043,7.79 -47.099,7.734 -47.099,7.665C-47.099,7.596 -47.043,7.54 -46.974,7.54L-36.974,7.54M-23.974,7.54C-23.904,7.54 -23.849,7.596 -23.849,7.665C-23.849,7.734 -23.904,7.79 -23.974,7.79L-33.974,7.79C-34.043,7.79 -34.099,7.734 -34.099,7.665C-34.099,7.596 -34.043,7.54 -33.974,7.54L-23.974,7.54M-9.552,7.455C-9.483,7.446 -9.421,7.495 -9.413,7.564C-9.404,7.633 -9.453,7.695 -9.522,7.703C-9.998,7.761 -10.482,7.79 -10.974,7.79L-20.974,7.79C-21.043,7.79 -21.099,7.734 -21.099,7.665C-21.099,7.596 -21.043,7.54 -20.974,7.54L-10.974,7.54C-10.499,7.54 -10.021,7.512 -9.552,7.455" style="fill:rgb(35,31,32);fill-rule:nonzero;"/>
            </g>
            <g transform="matrix(0.996188,0,0,-0.996188,83.0602,88.0687)">
                <g id="text4399">
                    <g>
                        <text x="-54.243px" y="0px" style="font-family:'LucidaGrande', 'Lucida Grande', sans-serif;font-weight:500;font-size:10px;fill:white;">Jobs are for scheduled</text>
                        <text x="-56.003px" y="10px" style="font-family:'LucidaGrande', 'Lucida Grande', sans-serif;font-weight:500;font-size:10px;fill:white;">maintenance or polling</text>
                        <g transform="matrix(10,0,0,10,25.8496,20)">
                        </g>
                        <text x="-25.85px" y="20px" style="font-family:'LucidaGrande', 'Lucida Grande', sans-serif;font-weight:500;font-size:10px;fill:white;">operations</text>
                    </g>
                </g>
            </g>
            <g id="rect3131" transform="matrix(1,0,0,-1,0,0)">
                <path d="M704.267,-274.618C704.267,-277.776 701.703,-280.34 698.545,-280.34L12.397,-280.34C9.239,-280.34 6.676,-277.776 6.676,-274.618L6.676,-235.042C6.676,-231.884 9.239,-229.32 12.397,-229.32L698.545,-229.32C701.703,-229.32 704.267,-231.884 704.267,-235.042L704.267,-274.618Z" style="fill:rgb(190,222,135);"/>
            </g>
            <g transform="matrix(1,0,0,-1,283.402,234.888)">
                <g id="text3924">
                    <g transform="matrix(25.6,0,0,25.6,148.288,0)">
                    </g>
                    <text x="0px" y="0px" style="font-family:'LucidaGrande', 'Lucida Grande', sans-serif;font-weight:500;font-size:25.6px;">System APIs</text>
                </g>
            </g>
            <g id="g4165" transform="matrix(1,0,0,1,46.3155,0)">
                <g id="rect3932" transform="matrix(1.09252,0,0,-1,-24.941,0.0782916)">
                    <path d="M281.633,-273.335C281.633,-275.552 279.986,-277.352 277.957,-277.352L178.502,-277.352C176.472,-277.352 174.825,-275.552 174.825,-273.335L174.825,-260.865C174.825,-258.648 176.472,-256.848 178.502,-256.848L277.957,-256.848C279.986,-256.848 281.633,-258.648 281.633,-260.865L281.633,-273.335Z" style="fill:rgb(151,175,107);"/>
                </g>
                <g transform="matrix(1,0,0,-1,167.747,264.001)">
                    <g id="text3934">
                        <g transform="matrix(11.2,0,0,11.2,112.082,0)">
                        </g>
                        <text x="0px" y="0px" style="font-family:'LucidaGrande', 'Lucida Grande', sans-serif;font-weight:500;font-size:11.2px;fill:white;">Connection Manager</text>
                    </g>
                </g>
            </g>
            <g id="g4064" transform="matrix(1,0,0,1,45.6522,-3.16348)">
                <g id="rect3999" transform="matrix(1.0918,0,0,-1,-39.3184,0)">
                    <path d="M538.947,-277.125C538.947,-278.996 537.556,-280.515 535.842,-280.515L431.43,-280.515C429.716,-280.515 428.324,-278.996 428.324,-277.125L428.324,-263.402C428.324,-261.531 429.716,-260.012 431.43,-260.012L535.842,-260.012C537.556,-260.012 538.947,-261.531 538.947,-263.402L538.947,-277.125Z" style="fill:rgb(151,175,107);"/>
                </g>
                <g transform="matrix(0.988308,0,0,-1.01183,433.262,266.535)">
                    <g id="text4001">
                        <g transform="matrix(11.3325,0,0,11.3325,112.683,0)">
                        </g>
                        <text x="0px" y="0px" style="font-family:'LucidaGrande', 'Lucida Grande', sans-serif;font-weight:500;font-size:11.333px;fill:white;">Datasource Manager</text>
                    </g>
                </g>
            </g>
            <g id="g4030" transform="matrix(1,0,0,1.02381,88.6238,-8.8922)">
                <g id="rect4005" transform="matrix(1,0,0,-1,0,0)">
                    <path d="M315.657,-276.047C315.657,-278.001 314.032,-279.587 312.032,-279.587L247.758,-279.587C245.757,-279.587 244.133,-278.001 244.133,-276.047L244.133,-263.101C244.133,-261.147 245.757,-259.561 247.758,-259.561L312.032,-259.561C314.032,-259.561 315.657,-261.147 315.657,-263.101L315.657,-276.047Z" style="fill:rgb(151,175,107);"/>
                </g>
                <g transform="matrix(1,0,0,-1,250.56,265.932)">
                    <g id="text4007">
                        <g transform="matrix(11.2,0,0,11.2,59.5383,0)">
                        </g>
                        <text x="0px" y="0px" style="font-family:'LucidaGrande', 'Lucida Grande', sans-serif;font-weight:500;font-size:11.2px;fill:white;">Monitoring</text>
                    </g>
                </g>
            </g>
            <g id="g4040" transform="matrix(1,0,0,1,86.7566,-2.54315)">
                <g id="rect4014" transform="matrix(1,0,0,-1,0,0)">
                    <path d="M382.412,-276.961C382.412,-278.58 381.097,-279.895 379.477,-279.895L325.266,-279.895C323.647,-279.895 322.332,-278.58 322.332,-276.961L322.332,-262.326C322.332,-260.706 323.647,-259.391 325.266,-259.391L379.477,-259.391C381.097,-259.391 382.412,-260.706 382.412,-262.326L382.412,-276.961Z" style="fill:rgb(151,175,107);"/>
                </g>
                <g transform="matrix(1,0,0,-1,331.869,265.914)">
                    <g id="text4016">
                        <g transform="matrix(11.2,0,0,11.2,43.1484,0)">
                        </g>
                        <text x="0px" y="0px" style="font-family:'LucidaGrande', 'Lucida Grande', sans-serif;font-weight:500;font-size:11.2px;fill:white;">Alerting</text>
                    </g>
                </g>
            </g>
            <g id="rect4045" transform="matrix(1,0,0,-1,0,0)">
                <path d="M704.267,-300.345C704.267,-302.973 702.134,-305.106 699.506,-305.106L10.835,-305.106C8.207,-305.106 6.074,-302.973 6.074,-300.345L6.074,-289.364C6.074,-286.736 8.207,-284.603 10.835,-284.603L699.506,-284.603C702.134,-284.603 704.267,-286.736 704.267,-289.364L704.267,-300.345Z" style="fill:rgb(115,129,87);"/>
            </g>
            <g transform="matrix(1,0,0,-1,119.947,291.772)">
                <g id="text4047">
                    <g transform="matrix(11.2,0,0,11.2,322.875,0)">
                    </g>
                    <text x="0px" y="0px" style="font-family:'LucidaGrande', 'Lucida Grande', sans-serif;font-weight:500;font-size:11.2px;fill:white;">Pluggable Enterprise Security / RBAC Access Manager Layer</text>
                </g>
            </g>
            <g id="g3997" transform="matrix(1,0,0,1,-39.1044,0)">
                <g id="rect3132" transform="matrix(1,0,0,-1,0,0)">
                    <path d="M566.114,-299.445C566.114,-301.434 564.498,-303.05 562.509,-303.05L534.641,-303.05C532.651,-303.05 531.036,-301.434 531.036,-299.445L531.036,-290.339C531.036,-288.35 532.651,-286.734 534.641,-286.734L562.509,-286.734C564.498,-286.734 566.114,-288.35 566.114,-290.339L566.114,-299.445Z" style="fill:rgb(144,161,94);stroke:white;stroke-width:0.66px;stroke-dasharray:3.95,1.32;"/>
                </g>
                <g transform="matrix(0.98542,0,0,-1.0148,536.999,291.155)">
                    <g id="text3134">
                        <g transform="matrix(9.74204,0,0,9.74204,24.5977,0)">
                        </g>
                        <text x="0px" y="0px" style="font-family:'LucidaGrande', 'Lucida Grande', sans-serif;font-weight:500;font-size:9.742px;fill:white;">LDAP</text>
                    </g>
                </g>
            </g>
            <g id="g39971" serif:id="g3997" transform="matrix(1,0,0,1,-0.564617,0.202978)">
                <g id="rect31321" serif:id="rect3132" transform="matrix(1,0,0,-1,0,0)">
                    <path d="M566.114,-299.445C566.114,-301.434 564.498,-303.05 562.509,-303.05L534.641,-303.05C532.651,-303.05 531.036,-301.434 531.036,-299.445L531.036,-290.339C531.036,-288.35 532.651,-286.734 534.641,-286.734L562.509,-286.734C564.498,-286.734 566.114,-288.35 566.114,-290.339L566.114,-299.445Z" style="fill:rgb(144,161,94);stroke:white;stroke-width:0.66px;stroke-dasharray:3.95,1.32;"/>
                </g>
                <g transform="matrix(0.98542,0,0,-1.0148,540.199,291.155)">
                    <g id="text31341" serif:id="text3134">
                        <g transform="matrix(9.74204,0,0,9.74204,18.0618,0)">
                        </g>
                        <text x="0px" y="0px" style="font-family:'LucidaGrande', 'Lucida Grande', sans-serif;font-weight:500;font-size:9.742px;fill:white;">SSO</text>
                    </g>
                </g>
            </g>
            <g id="g3984" transform="matrix(1,0,0,1,-33.6,0)">
                <g id="rect3956" transform="matrix(1,0,0,-1,0,0)">
                    <path d="M521.213,-300.143C521.213,-301.711 519.941,-302.984 518.373,-302.984L493.078,-302.984C491.51,-302.984 490.237,-301.711 490.237,-300.143L490.237,-289.641C490.237,-288.073 491.51,-286.8 493.078,-286.8L518.373,-286.8C519.941,-286.8 521.213,-288.073 521.213,-289.641L521.213,-300.143Z" style="fill:rgb(144,161,94);stroke:white;stroke-width:0.76px;stroke-dasharray:4.56,1.52;"/>
                </g>
                <g transform="matrix(1,0,0,-1,499.38,291.606)">
                    <g id="text3958">
                        <g transform="matrix(9.6,0,0,9.6,12.7125,0)">
                        </g>
                        <text x="0px" y="0px" style="font-family:'LucidaGrande', 'Lucida Grande', sans-serif;font-weight:500;font-size:9.6px;fill:white;">DB</text>
                    </g>
                </g>
            </g>
            <g id="g3992" transform="matrix(1,0,0,1,-3.99996,0)">
                <g id="rect3972" transform="matrix(1,0,0,-1,0,0)">
                    <path d="M603.958,-300.346C603.958,-301.793 602.784,-302.967 601.338,-302.967L577.166,-302.967C575.72,-302.967 574.545,-301.793 574.545,-300.346L574.545,-289.438C574.545,-287.991 575.72,-286.817 577.166,-286.817L601.338,-286.817C602.784,-286.817 603.958,-287.991 603.958,-289.438L603.958,-300.346Z" style="fill:rgb(144,161,94);stroke:white;stroke-width:0.8px;stroke-linecap:round;stroke-dasharray:4.77,1.59;"/>
                </g>
                <g transform="matrix(0.8,0,0,-0.8,581.708,291.339)">
                    <g id="text3980">
                        <g transform="matrix(12,0,0,12,18.9844,0)">
                        </g>
                        <text x="0px" y="0px" style="font-family:'LucidaGrande', 'Lucida Grande', sans-serif;font-weight:500;font-size:12px;fill:white;">. . .</text>
                    </g>
                </g>
            </g>
            <g id="g4160" transform="matrix(1,0,0,1,35.2,0)">
                <g id="rect4006" transform="matrix(1.11717,0,0,-1,-9.41185,0)">
                    <path d="M163.532,-273.161C163.532,-275.197 162.052,-276.85 160.23,-276.85L83.631,-276.85C81.808,-276.85 80.328,-275.197 80.328,-273.161L80.328,-261.038C80.328,-259.002 81.808,-257.349 83.631,-257.349L160.23,-257.349C162.052,-257.349 163.532,-259.002 163.532,-261.038L163.532,-273.161Z" style="fill:rgb(151,175,107);"/>
                </g>
                <g transform="matrix(1,0,0,-1,86.6957,263.81)">
                    <g id="text4008">
                        <g transform="matrix(11.2,0,0,11.2,79.5648,0)">
                        </g>
                        <text x="0px" y="0px" style="font-family:'LucidaGrande', 'Lucida Grande', sans-serif;font-weight:500;font-size:11.2px;fill:white;">Event Manager</text>
                    </g>
                </g>
            </g>
            <g id="use4193" transform="matrix(1,0,0,-1,0,0)">
                <path d="M438.906,-424.661C438.906,-428.93 435.44,-432.396 431.171,-432.396L280.979,-432.396C276.71,-432.396 273.244,-428.93 273.244,-424.661L273.244,-394.362C273.244,-390.093 276.71,-386.627 280.979,-386.627L431.171,-386.627C435.44,-386.627 438.906,-390.093 438.906,-394.362L438.906,-424.661Z" style="fill:none;stroke:black;stroke-width:0.4px;stroke-linejoin:miter;stroke-dasharray:4.8,4.8;"/>
            </g>
            <g id="rect4201" transform="matrix(1,0,0,-1,0,0)">
                <path d="M646.649,-70.427C646.649,-72.251 645.168,-73.732 643.344,-73.732L612.773,-73.732C610.949,-73.732 609.468,-72.251 609.468,-70.427L609.468,-61.419C609.468,-59.595 610.949,-58.114 612.773,-58.114L643.344,-58.114C645.168,-58.114 646.649,-59.595 646.649,-61.419L646.649,-70.427Z" style="fill:rgb(255,249,224);stroke:black;stroke-width:0.3px;stroke-dasharray:2.4,1.2;"/>
            </g>
            <g transform="matrix(1,0,0,-1,614.856,62.15)">
                <g id="text4207">
                    <g transform="matrix(9.6,0,0,9.6,25.2703,0)">
                    </g>
                    <text x="0px" y="0px" style="font-family:'LucidaGrande', 'Lucida Grande', sans-serif;font-weight:500;font-size:9.6px;">MSGs</text>
                </g>
            </g>
            <g id="rect4211" transform="matrix(1,0,0,-1,0,0)">
                <path d="M677.264,-69.949C677.264,-72.025 675.578,-73.71 673.502,-73.71L653.791,-73.71C651.715,-73.71 650.029,-72.025 650.029,-69.949L650.029,-61.897C650.029,-59.821 651.715,-58.135 653.791,-58.135L673.502,-58.135C675.578,-58.135 677.264,-59.821 677.264,-61.897L677.264,-69.949Z" style="fill:rgb(255,249,224);stroke:black;stroke-width:0.34px;stroke-dasharray:2.73,1.37;"/>
            </g>
            <g transform="matrix(1,0,0,-1,654.03,61.7929)">
                <g id="text4213">
                    <g transform="matrix(9.6,0,0,9.6,16.425,0)">
                    </g>
                    <text x="0px" y="0px" style="font-family:'LucidaGrande', 'Lucida Grande', sans-serif;font-weight:500;font-size:9.6px;">JMS</text>
                </g>
            </g>
            <g id="rect4217" transform="matrix(1,0,0,-1,0,0)">
                <path d="M568.064,-70.423C568.064,-72.218 566.607,-73.675 564.812,-73.675L530.616,-73.675C528.821,-73.675 527.364,-72.218 527.364,-70.423L527.364,-61.422C527.364,-59.628 528.821,-58.171 530.616,-58.171L564.812,-58.171C566.607,-58.171 568.064,-59.628 568.064,-61.422L568.064,-70.423Z" style="fill:rgb(255,249,224);stroke:black;stroke-width:0.41px;stroke-dasharray:3.3,1.65;"/>
            </g>
            <g transform="matrix(1,0,0,-1,530.534,62.6333)">
                <g id="text4219">
                    <g transform="matrix(9.6,0,0,9.6,34.7062,0)">
                    </g>
                    <text x="0px" y="0px" style="font-family:'LucidaGrande', 'Lucida Grande', sans-serif;font-weight:500;font-size:9.6px;">HTTP/S</text>
                </g>
            </g>
            <g id="rect4223" transform="matrix(1,0,0,-1,0,0)">
                <path d="M606.044,-70.631C606.044,-72.307 604.684,-73.667 603.008,-73.667L574.58,-73.667C572.904,-73.667 571.544,-72.307 571.544,-70.631L571.544,-61.214C571.544,-59.539 572.904,-58.179 574.58,-58.179L603.008,-58.179C604.684,-58.179 606.044,-59.539 606.044,-61.214L606.044,-70.631Z" style="fill:rgb(255,249,224);stroke:black;stroke-width:0.43px;stroke-dasharray:3.43,1.71;"/>
            </g>
            <g transform="matrix(1,0,0,-1,577.771,62.6414)">
                <g id="text4225">
                    <g transform="matrix(9.6,0,0,9.6,22.5141,0)">
                    </g>
                    <text x="0px" y="0px" style="font-family:'LucidaGrande', 'Lucida Grande', sans-serif;font-weight:500;font-size:9.6px;">REST</text>
                </g>
            </g>
            <g id="rect4253" transform="matrix(1,0,0,-1,0,0)">
                <path d="M704.268,-70.702C704.268,-72.363 702.919,-73.712 701.258,-73.712L683.911,-73.712C682.25,-73.712 680.902,-72.363 680.902,-70.702L680.902,-61.144C680.902,-59.483 682.25,-58.134 683.911,-58.134L701.258,-58.134C702.919,-58.134 704.268,-59.483 704.268,-61.144L704.268,-70.702Z" style="fill:rgb(255,249,224);stroke:black;stroke-width:0.34px;stroke-dasharray:2.72,1.36;"/>
            </g>
            <g transform="matrix(0.8,0,0,-0.8,686.148,61.9869)">
                <g id="text4255">
                    <g transform="matrix(12,0,0,12,18.9844,0)">
                    </g>
                    <text x="0px" y="0px" style="font-family:'LucidaGrande', 'Lucida Grande', sans-serif;font-weight:500;font-size:12px;">. . .</text>
                </g>
            </g>
            <g transform="matrix(0.8,0,0,-0.8,-11.6812,432.376)">
                <g transform="matrix(16,0,0,16,491.437,410.935)">
                </g>
                <g transform="matrix(16,0,0,16,498.144,410.935)">
                </g>
                <g transform="matrix(16,0,0,16,642.093,410.935)">
                </g>
                <text x="452.285px" y="410.935px" style="font-family:'NeoSansPro-Bold', 'Neo Sans Pro', sans-serif;font-weight:700;font-size:16px;">W<tspan x="466.269px 475.693px " y="410.935px 410.935px ">or</tspan>ko<tspan x="511.789px 525.309px " y="410.935px 410.935px ">w </tspan>Ex<tspan x="547.933px 557.373px " y="410.935px 410.935px ">ec</tspan> Instanc<tspan x="624.605px 634.045px " y="410.935px 410.935px ">es</tspan></text>
            </g>
        </g>
    </g>
</svg>
